<mxfile host="Electron" agent="Mozilla/5.0 (Windows NT 10.0; Win64; x64) AppleWebKit/537.36 (KHTML, like Gecko) draw.io/25.0.2 Chrome/128.0.6613.186 Electron/32.2.5 Safari/537.36" version="25.0.2">
  <diagram name="method" id="FRCfBuH058KyWinZTGOe">
    <mxGraphModel dx="1500" dy="936" grid="1" gridSize="10" guides="1" tooltips="1" connect="1" arrows="1" fold="1" page="1" pageScale="1" pageWidth="850" pageHeight="1100" math="0" shadow="0">
      <root>
        <mxCell id="0" />
        <mxCell id="1" parent="0" />
        <mxCell id="E4PkKl1fuBF28ogTU3mZ-1" value="" style="shape=image;verticalLabelPosition=bottom;labelBackgroundColor=default;verticalAlign=top;aspect=fixed;imageAspect=0;image=data:image/png,iVBORw0KGgoAAAANSUhEUgAABSUAAALhCAYAAACpL8HKAAAAAXNSR0IArs4c6QAAAARnQU1BAACxjwv8YQUAAAAJcEhZcwAAEnQAABJ0Ad5mH3gAAPQ5SURBVHhe7P17dFT1ocd/f3zapbaJkyi3WOQkIxGriBjhtIUjUE8aj5x4WRCqj3IgdGmkLMVqj63IpctVkEalrfXycGjapWCxPyjB5SUHn6Y5LcQD2nIRr9UOJhQ5CSFgMhKLPu3y+WPvmdn7u/fM7EkmkwDv11pZi+zvzt7f/d17JpkP38tpxcXFnwkAAAAAAAAAcuT/ZW4AAAAAAAAAgP5EKAkAAAAAAAAgpwglAQAAAAAAAOQUoSQAAAAAAACAnCKUBAAAAAAAAJBThJIAAAAAAAAAcopQEgAAAAAAAEBOEUoCAAAAAAAAyClCSQAAAAAAAAA5RSgJAAAAAAAAIKcIJQEAAAAAAADkFKEkAAAAAAAAgJwilAQAAAAAAACQU6cVFxd/Zm7MhtDsLbro/MT3hxqmq3W3cw+ccKbOVekdE5SnVu274ac6Zpb7qb5b4yvP0cHHl6lzm1k4SFXfrfGVJdJHu/TOLev0qVmOFD7R715qlzYX6xs/N8sC6s1zhmBy+WyX9+j1732sNx8eppubzEIAAAAAwKmu33pKRtdP16vLp+vVX/yJUEGSdJVGbvyZSu8dYxbgpDV47/np9y7X+I13K98s6JN/6JmN7SqNDtWG3gaSOHk05WnLvo81+XvdetAsAwAAAACc8vqtp2TcuT/U2Fv/WT0naE/J/Id+ptEljg297mF0lUZurNQXdj2hyIPvmYU6/d7lumjCUW/PMLvX2N8avqODa50FJ4ikPSWt9hgqqSdJm5z4Ut/zgZT0eeuDB5/YrxtHF2rD1QW61yw8paR6tsdo6C9v18izHJskydMrNHEMj4926Z1bXlHol7dr5Fnmz8XYP9/aoL3f/61ZmEP/0DMbP9BkDdUDN+SpziwGAAAAAJyy+q2n5Alv6lyVbvyZRpe0at8N39He2Nda6Z8eusrcG5mqHquhatXBXVHljfmaTjfLcWIp79H00VJk86keSAZ8tlsbEu8pNzyhgx+VaPTGn2lkdWyH3+pgrLyhVVJUBx+3v79lnT7Ve4q+F5VUooL4zzhUj9VQSZ1vDWQgKUmf081rhioa6tTC+/9hFgIAAAAATmG97yl5+eP6auXoxPfv1+vV9b9w7mFJ21PySo1Y+H2VFCa2HPvTQ3rrpd87d4ofJzHcdJ/eWX6Hoq6dpDOu3qTL/jkvsSFZvVKyezMpWK9Iq9dZKP69s3eUWWaK7Zu055rZU3LqXJXecYG6Hl+m49c4enEaPTjzH/qZRqtBe18ssufns3T69Lj09AY1e1fF5/izpeotau4r2YGKu6eku37W9TjLT793uS4a8xe9c0u7hjl6jLl7nlm9wdTwHR0ucrazf+8x8zo9vdhi8+3FmO0gBTpn0HtunU/a9/gRFcXnUGzQmbGedMb5zeOa9U/fZil630m+7Za2zWwPPrFfNw7z7w1nHcN7bE9vPvPZSfWcea7FcfykvXMt+Q/9TKOHOI9tHsv7vGYi9bNtv7ccMZ8tuw5+15zsemLt5fOceto80LNtSfWcedvOKXnP4CC9aKtX1eu6cI92PzpXD2w1SwEAAAAAJ5te9ZQMzd6ir1aO1qEGe97I5dP16juXqeRyc8/0QrNvlzY5jtOwT/n//H2NvfrKxE52IKk/PZTY7xdHNWr2rc5D2YGk1PqLxPFeO3J15vWqrtTIs6TObX4fvN3yH/qZHSbavZge3yVNuD0+j+CnDy6ze0M1qNP+gJ/oIfUdz4f3YEIaecfPVHQkdqwGdZ41QReZPThLKjX+jgvUZfewemdXVEMrl2vo1MQup9+7XAVvOXqCPr5LPSWVGu881rZ1itjl+1oTmz2q79Z4O0CNH6/B7weuUkGJ3Ytr2yvq+iikwkk+8y6eNUEX2QFg7Fh5E2539CazDK38mRXGOXud/XKuo4eaNbfj6CG77H0S98l1nWt/atf7CR38KLHZz9DKn+miIc2O/RPnzOyen6Oi6iFqv6FBnSpR0S/nqPC9J/TOrqhUMjYewqd7zuLOmqCLNk7RJ7Feda42S/S+e2dX1A7yHPfKN5B079M+ZI7r+bF8ogmjpejbZ3oCSUk69larf4++6rEaqqgOvmiHY0Gfs6lzVWqHX7F67Wst0ejYHJktR9SjkM4Imz/ocKTdHUi6ei4264xq5/OTiYDPtkerPknzzHlse0VdH8n1nFisOqj1rcT9DPhsp3vOPj0Slc4akrJt/tbufU+7d2+hpC5NuM0sianWuLAk5enCyVPMQgAAAADASSjzUPLcH2rU+T6rae++I0lPyNSi62fpUJtjw+56tXZJ+RdcqTNi2849R/nqUedeR+/Jth/oLaMH5BlD8qSut9XlON4nL83KuF6nF50jKapPWswSw9S5KiqROhscYc62dfrrrqjyJlRmeRERQ2uDI9z6rbpbJQ0pMsICd4+vTx9sVqfcIcmnDy5z95zctk7trX5BRzpjNHRqidTa4OmJ6WEPb+1eK8kehppsmKurZ+faBh38SBo61ghfXb3L3lPntlbprAsUssOz0++doqFq1T5n7y77Pqlkik/IFsBHu/ROvKeZPZQ2TVjjLyS91xB/fvL0F/01fl/P0ZlTM3/OOhscPerWvqVOSV8oChKMOY3RmUOMYEvSse/79CC87bhK9UW92fw5o8Bm18G8b/ljS6SP/qKoebw08q+ZoLyPdjnaSTr2fTvUvXeMtK1df3Ps717Ux7quniN26jm1SF/wDHP+rQ769gQMIINn261EZ5zlDEuDsJ91M/A1w96gAjxnn7YfdfzAGA395c8Swf7UIn0h2fvmz89URNLwLyUbwr1Wb7RIUo/e3d5sFgIAAAAATkIZh5JnjL9Y+dqnoxkGfcH9Xn9zfu6VpLajOqY8ldy6SSPONcocPjnSIxX+sy5b+MNEoNkLpw8xht7a80uOj33ZH8JPn3SB8uIBRIL1wd0OlPpJoLniPIGP1Rsrb4hzrLbXp0fMQfEBTP2aCs8KVq/8sSWusOvT9qOuEDHBbNv3dPyIN3ztee8Vd5Dj6ik3RqExIemjI56w59Mdf0nfoy4Jzzl7LaquHY6eZT6hVGbPmXe/3rHb2uw166PmS59KOl0HmsySmN/qsNHzM9abL/N2TPZzzmfb+ncsiLVez7Hgzg7/YuwAc2ilcz7H3gv+bDuN0dBfVlrBeZIh1Un5BL69DXsDPWctR9QTf+bstozd1/AQY9oGp8+rIyqFhv3dLIhbe0+VqqoYug0AAAAAp4rMQ8kheVLXUX1iFvTWuT/U2GVb9FXH10XnG/u0/UBvLa/XIeWp5NbYfo/LnLXvk5dm6dWGfVYwGTueMcQ7CE8oFx9W6h76GAs7RjsDy40/c8/dNuhZQ5ud9U81H2Lf2aFSrKeaYsFKSCOvSR1+9YlP2BeTeS/C3Bqo5+zY9+1h3iWV8XN6hosHZAXAjh59do/C9kynL7B7NuZNuN3dFhudK1pbgaoVUF6lghJr0RnnfU4MMf6tDtqv66GVsWO5pzgILoNn29Gm4zfac0x65twMwu4lHQ98k4W26QV6zra162+xIL96rIa27tLBj5zB+FEdzzAMBQAAAACcmjIOJa3eiOf0qSdiXGzxmvfrE3NFLp+ud943d5SkX6jVMe+kNFoX+QST2n2H+zjnV2UcTFo9g9L3oLPCS3NevtiXzzDXQcexuIaj7tZ8g/3EXhXYHSrZi4xkPGQ8O/zmwBtMBvI5S8yPaQV3eX7zWAZhz38Y69Fn9igMzO7ZaM7TGf9y9jQcUqTTpxbpC61vqbP9qDWM2neI8XvqvMX++cd3qUchjbyjF8FkJs+2aw5Lo94Zcs3ZaQ/ddvW+DSiT5+wLRWN0etE56nxrnY4fsaaEOL3oHN8eyQAAAAAA+Mk8lOxolzRa52S6eIwPayh4j1r/J8PVsXffYQeTRfpCiuHc0fV2MHnOP2UWovoMifTjP3w2mSBDp32OFR6iPE+I0kvmEGs7RAmyoE9adljk7nVozzPpYA0tdYege2+ILYjjsxiKS7BeYO5hqPZ8j2Yo5NmvPwS55+ll9pwFk/kx31PnLXYwaVxP3f+dLulTjSp3bTbY8x+WjFW+czGYjAVr01hv59MnXSAdabVe02ddoFBYqXvzbVuniB1M+v2nRPWqetXX12vdfd7FWPr2bPeB4/2qt0O3FfiZiC3IU6LQGOmTFisUjc+bmbRH8t81PCRFD3/eLIiz2nadlkwzSwAAAAAAJ6OMQ8nYQjQjKo35HS9/PONVrq2AM09Dx8dW2r5SIxZ6h2+fcfUmz7FDF42W1K6/xRe1uVIjFpo9J2/VOedLOvrXDIeb/1YHG1rTz6e3tkEHPwpp5B2xRTRSic3R57+wSmwRGvcwz6s0srJEam3OQm+4MRpabS0QcjgWwrUcUY85H91DvR2+bQ0jdS68kv/Q7RqpqHri+6QIFQMEwfkPWfPupRzyO3Wu/mlCSD27EovHWG1botHOe+mzX/alvueBZfScBWTPu+kZVhx3lUa6VjBPhNqu4cmKLWLysS6ZkmwRE9vat9SpEhU8NFZDnc9hRmLhZmXKHpvWXI4TNHqC7F6Dv1V3a0gjKycoz9mbr/puz3GssNrvPwJiK0RLeWOmyh1L9u3Z7pvYEO5KjU5WhyACPWf20PgJlRopO/xc+5Y6z5qg0RNC3mcj5rbjKpXU8X9JFkNi9W0AAAAAOOWcVlxc/Jm5MYjQbCM8fL9er8ZXw75VJcuqNMJRnLBP7yy/Q7EBwmdcvUmX/XNieYRDDdN19KItuuicP+m1x34QDxM95+tyl1u85z32p4f01kuOVbszYg9vNra6VoS2g7zRZset1gafIZljNPSXzrnvrGGoiVW0vedzl9uL7twxQX/zq8OQxCrUgetUfbdrzrieXU/or5qjiyYc1T57jrvT712eNKh01899fT27nlBkx9dUescF6np8mTrDd2t85TmuFcGdrDq3at8NP9Wnfud0rbIt3/aSz/2xePc19/NtM1tiX+s4XzDui9VGiTZLSHHPq53tYdfPvkfW8eRqK9/6Oe6pfx386yt57701dNfxs/az5ly8xGyzmAef2K8bhw3VAzfkqc4sdIhdg+e5zug586+ba7X5WLnzmYldr/E68J7XaAeH6lX1ui4s9ex8RHN/5Fgl2nUvnT9hSTzbDTrzl/YckuZr0cX7vMZ5XgfOe+loAwffZ8dm3lPffT3PWch1T2I/Yx4rJsjzYbVtj3Y/ymI3AAAAAHAq6HUoicHNDClPNP4BmylF4IbcKu/R69/rlF45T5fen6w3HE5J9rPRsblY3/i5WQgAAAAAOFVlPnwbAExNedqyTwp97aieSTm3JE4t/9Az8zsVig7VBgJJAAAAAIADoSSArLj39vO0PfqxJn+vWw+ahTglPfjEB5ocKtSGFMO2AQAAAACnJkJJAFnyOd18Q5Ei6tKE28wynHLKezR99Be1/eEC3WuWAQAAAABOecwpCQAAAAAAACCn6CkJAAAAAAAAIKcIJQEAAAAAAADkVEahZDgc1plnnmluBgAAAAAAAIDAMgolAQAAAAAAAKCvCCUBAAAAAAAA5BShJAAAAAAAAICcOilDyalXVurZ796kX10ZMoscRunH371Jz373Cs0zi5xGjNWvvnuTnr11rKaaZQAAAAAAAAAydlKGkgAAAAAAAAAGr5MylNzW2S1JOtQZNYscuvVhVFL0Q71vFjkdiuqQJH0Y1TazDAAAAAAAAEDGTspQEgAAAAAAAMDgdVpxcfFn5sZkwuGw2tradPz4cbMIAAAAAAAAAAKhpyQAAAAAAACAnCKUBAAAAAAAAJBThJIAAAAAAAAAcopQEgAAAAAAAEBOEUoCAAAAAAAAyClCSQAAAAAAAAA5RSgJAAAAAAAAIKcIJQEAAAAAAADkFKEkAAAAAAAAgJwilAQAAAAAAACQU4SSAAAAAAAAAHKKUBIAAAAAAABAThFKAgAAAAAAAMgpQkkAAAAAAAAAOXVShJLhcFhnnnmmuRkAAAAAAADAIHRShJIAAAAAAAAAThyEkgAAAAAAAAByilASAAAAAAAAQE6dVlxc/Jm5MZlwOKy2tjYdP37cLBpQg7VeOPnNq7pJ1xc7Nux/WTPqDzg2pDHuCj1bMSrxfaY/D+DUNGKsfjX7UuXpgJ77yct6yiz3M+4KPVtRoF3rG7TikFl4You9F/fsadB//D5qFqMv4s9aTPSkfIbiTuLXCQAAwGBDT0mgl6wPwVHtWv9rzfiJ/ZVpoPjGy/bPNmjXifo5esRY/eq7N+nH48wCJHWit9mJXn8gmUH8bM+ruknP3jpWU82C/hQLJPfHfldZv68I6/poED9nAAAAuUQomTOj9OPv3qRn41+VWjrC3AcnjlEaVyxp/+t8OAOQe4fe0n/85NeaEbSX5EnuqXorMKOXZHZNvbhEeYpq18sZ/ocbAAAAEAChZC6Mu0LPfvcKjdjTEO9p8NM90oTZ/C/5ia7naLe5CQCAk0i3PuA/3wAAANAPmFOy34W09NZKTfjQO1egNfw3Nh/YKP34u1dIjb/Wc0MrdXdZyN4rg/nCTOZ8hX05ll2/8+Pfe+eUmld1k64/+3X99BdvaVtsoz3061Djr/WfbyT29R4vSd3Ma/CbczHIPj7zP/rOPeaZOytJvez6j/A7hqSpV1bq7rJu42dT/Uzy5ySoqVdW6u7RrfrpL6K63tG2ftdp1S/2jPWuzcwy0/uee56GYx6vD65wHtvvHgR7fnzr6LjWjO5TFp4zs8yUcZsF4ni2Xg65nu8gz0bv6u/fhp72DnjP51XdpOvlrb9fe5l19LvG9ALWf8RY/Wp2if5s1j/qfh/sS/09z5n5HmWcy8XcV/J97w7EcyzzOAF/hwVss8S+qd+Pzfbya9Mg743mcUzWca3X0pf3Neh351Qm5rDsvNR+bzDbxH7txV9OZnmANvO0gcFsN8/+3jbLhOeZ95P2nI7XU7ytLH73KwjP/TJfJ5nw1F8+98r73pj0nCl+V3jqbTDbw9zf834W8D0UAABgsCKU7G/2H6fmH5reMkfIEv8D1v5AI58Pa+mMGKtfXRHVf8T/YI59OOrNH6p23Vx/gI/Sj28N6Tnzg3eQUDL2B7t5vCrpPx1/4Mf+GHe13bgr9GO9HP/e+pAgx4cHv7rGjmUGHZU672XHhw67rnL+0e9qR/MDpinxIcb/g5x/0GHJUihpf2CKt5nn+fN7Duw28wtS0rWZktzj3nB+kEv1GvC5T966+vycTxsHvU9Zfc6UxTYLxPncOj5oe54Nn/r7tLUc25PX39uG8mvvgPc88cE8UTfvPfGpf7L2Tytg/R1hRiIs8D4bifqb7xHu+k+9slLXdzYk2jR2/CThh+97bozP/XUGGBm3h9/7fbEzuHH8Dou/l3jvpSsAil+Xt81i72fe59MbFkmpn8nEe2Pq519KfZzYs/llRaV9zfq5puju0VJPqFu/+8l+jXM9M8muyed9RKmf/5iU91tJXq+evwUCMEM1k+ea0t0nx3WmeQ0HkenrJCW/58DzOsn092bqv1ukdM+Z/I/vd50B30MBAAAGK4Zv97OpQwskHdAbfn90dnyoHnNb9HX9NP5HdVTb9kWl0NmOHmEBHXrL+BAS1YpXrQ9/4zIdMj4ipBGS3n/PebwD+s9e/bEb0tKvmoGkrOM5vx8xVt8w/7CXtTBM4vtRur4spJ49zY4PNAf0n40HpOJLHXN2hnTe2ZL273eFsU/VGx+Ehp+tPEX157cd4YurHaNa8YvYRP8v6307iBhsk/+72uyN17UrKp0/xv7QMu5STQhFtWu9M4Sz2yx0qa6PPxsB26wf9OxpcDwb3tfAvCsuVV70df3cERY9Vf+y3tcofeNKOzGOXecLvXlGTVl+zgbMAT3nfEbf2K/3JY0YardZ/DXneDYOvaWf74kqr+xSzYtt6wfp7nlsu/O53fZ2q3oU0tnDY+UD2P77X3aElwf0xn5JZ4eMBUncYdq237+u9xXSly9O/C/Htt87ghZZ7f+7/ZKKizNs/8T7rH/gkSnv+/1TL7+uHqP+ktlzz/69EyrRVHMOZdfvgAN6bk/UcZ2x15y7PazXeUgTrkgRmKXwfmOK5z8DeaFu/S52v0MhHXK8ZvLOKZAkTb3yUp2vA3rO8Xtt2++btSvqU/9s/d5P+zssoPgCbL/WT/dE7fcOvwXdMrxP0df1U8d/GHhfw8Hk/HUS9PdmoL9bgok/P87Xnf1+7P69Ywn2HgoAADD4EEoOAs4PRT37DmQhREnCLwQN4lBUhySdX5GFOTBHjNKXQ2bA6WVNrp8kzI0ZV6zzzQ9gil2n84NOVB98KKn4Cj1bleLDrP1zE2afyIsQmW1mX7sdkMwbM8p/fjDPB/SAbdYPDnW67+e23zc4FvOwFhjyvk669WE0EQjMGzNKirZqm3mdvZHt52ygRD/U+64NB/SfjoVBkr3mtnV2SyrQef34mkh9z21p7+fAtX+69zPJr/7uZzaZ948az10QAd9n+8T+vWDyvDY9rxOLWTfXczauWOf7PBfJA98gvM92r7mC76g+7HCVSgpp6uiQJyA3349jPG3WW7n+HZbpffow6r5Oe7GmTAM7P/35Ogn6ezPZe2jm7OfH856dPMg174HveygAAMAgRCg5CJh/TGbLvCrnat836VnPnElBHdB//qTB6nFX0cfVw+2eHN4PcW7nn+P/B7mT1Qs1pAmz01/nU/V2j4/iK+L7/SrWqy7m0Fv6j5/YPTzix7wiw54XJ4AU7eoMSAK1Wa7ZvXbzyird9/y7qYbV903Wn7NB6vxzQlbPJ1e73pR6GOcgcyK3v2WUfmy0v2sOuwE09UrzNeec07U/pPg9Meh7gBXo7JAdkBv3M9V8gn02IL/DBuI+DcDrJMDvzSB/t2TEDHEdetPDFwAAYDAilOxnKXsZBQzoeiMxp5NjyNX613vXU1KSnEOX11vD9nrVGyNJrxnT+0fTDz2y2ta4RseX2fvC6jlgDbPeFbWCLW9gYfUem/GTX2tG4wE7pOnvD3WDh7maeLA2yyG7d5Z72LzfsMLs6Z/nbPCxehoZwzTjXzkYAp0lJ2r7u+aQc7S9NXx2YDnnDUw8E9YUFgMim8FPv7B6wWp/Yhi066tXU58ENYh+h/XLfRp8r5PY780gf7dkS3/9ZzYAAECuEUr2tzf2+8+tlO0hpi7WEFftf71/goRDb+k/7GAyXbhoDWdyiA0Fj81xmIQVBKWZ/zJgwOkV1Ypf2IFFqqGTb7xsf6gr8A+VM2UPdcst93Dnp95LMr9bsiHKcSnazL6nuem5kcGQV/PD4bhLg/WmNO9TfzxnGbRZrMdzfwdrKf8DxZRB/RPsIYk5k6L9eyXL9TeHjtrP3fuvZiGw8r0/9vx5GYsNJX1dz/ViWGrQIa2u34f2703PfJVJp2/IIt+2y5T/MO2+8n1fSyXbv8NMA3GfBuB1EvT3ZqC/W2J8zx1jzwnpM0dm0NcTAADAiYJQst/FJvC/wjUf49QrK62ejFlZiMNk99Jw/kE77grf4aaBjLvCE4hYfxi7e3laH5gSf7gnVjx1SrSH+5ij9GPnPHCxBVoqjN6Y4xztaE9u79nHY5R+fOtY94dDOxBw9gycemWlZ87MpHNJpeH5cJJuNdN+Mq/qCp2vA4lFGd543Vpo4Vpne4zSjytGGSF2sDaz2EFhPy+GYrEXzvA8P27WvFuOhW9GjNWvKgrUY2Suge5Tlp8zS9A2sxdvUZB9+yj2bMwO0qsqXf3t8tGj7PZIt3J9NmTS/un0d/1DWnqttWBTPOiz5/x1/ofNvKreDku15vRz3p95VZWaoGgvesvbAZszlBkxVr8KMnx7xFjdVhZSz57XU89tN+4Ka8XieNBk/Z7IK5vies153s/6RbpnO5inXn5dPaFLdXcW5zeNvV/F39cM2fwdFswA3KeBeJ0E/b0Z5O+WuNTPmbUQ1ihd73x+gr6eAAAATiCnFRcXf2ZuTCYcDqutrU3Hjx83iwbUYK2XiyfsOKDnXJOQW0OSRuxpcKziGgv2uo19g7CHOMW+jb6un74g3Tb7Uh0yV4YMwBswmvW3WMPG7W+ir+unv4jq+u9eIZnnTNseFtfxZK7YavHWLXZuR+A7Yqx+ZYSynhUy/c5nHifO/345uet1QM/95HWdd2ulvrwv8TOe8zn41S+VQO0g+QYsPX7XEbDNLMbzlnLfJOxnItDP+dTNGmLtGGbsesYS7T/hQ/czFOQ+efezme3rU6/k1xOwzeLX4f8aSc++3/J7Frx8n0mf1136+rvLe/Y06D86L9WzFUpcR8B7Pq/qJl1/tn9bu97PMmr/dALU368OPvUN3KbG+2LPngb9XFNcvwN8n0Ob+3Xsfp337GnQf7w9Sr+aXaI/O18ngZjvGQf03E/2a5zrPdD7PMiv/X3ukee1a/Ncq/l6S3JOS+L14v97NNV7uPe41nXY7WC/h1jHlV13+2dc99V7nMSxEuVmHfzr6yxL3iaeZ83TZplJVZeYdHWKt4PfM98bAV4nwQV9nZivAfP1luC5B0mv2/t8pHoP9ZYHfw8FAAAYrAglgZNEkA+PpzZ3oHDisD+Yej7o40RhhpQnJ/+AzSNJkAsAAADg1MPwbQAYxKyhkP011QMAAAAAAAODUBIABqNxV+jZ796k64sP6LkTaPVrAAAAAACCIJQEgMHojZc14ye/1gyG4wMAAAAATkLMKQkAAAAAAAAgp+gpCQAAAAAAACCnCCUBAAAAAAAA5NRJEUq2tLQwdBsAAAAAAAA4QZwUoSQAAAAAAACAEwehJAAAAAAAAICcIpQEAAAAAAAAkFMnZSg59cpKPfvdm/SrK0NmkcMo/fi7N+nZ716heWaR04ix+tV3b9Kzt47VVLMMAAAAAAAAQMZOylASAAAAAAAAwOB1UoaS2zq7JUmHOqNmkUO3PoxKin6o980ip0NRHZKkD6PaZpYBAAAAAAAAyNhJGUoCAAAAAAAAGLxOKy4u/szcmEw4HFZbW5uOHz9uFgEAAAAAAABAIPSUBAAAAAAAAJBThJIAAAAAAAAAcopQEgAAAAAAAEBOEUoCAAAAAAAAyClCSQAAAAAAAAA5RSgJAAAAAAAAIKcIJQEAAAAAAADkFKEkAAAAAAAAgJwilAQAAAAAAACQU4SSAAAAAAAAAHKKUBIAAAAAAABAThFKAgAAAAAAAMgpQkkAAAAAAAAAOUUoCQAAAAAAACCnCCUBAAAAAAAA5BShJAAAAAAAAICcIpQEAAAAAAAAkFOEkgAAAAAAAAByilASAAAAAAAAQE4RSvZFxXotbGrRnAVmwSCyoFHLmlq0bPN6FZllA6pG0ze3aNlgbz8fZWusese+TrT6nzj+oWc27tfr9//DLMixqzRy489Ueu8Ys2DwmDpXpRt/pvEb71a+WTbA8h/6mcYP9vYDJJ1+7/JB+RqKvb5HVpsFg0j13Rq/8Wca/8u5Ot0sG1BjNPSX1nvQ4Gm/wfK7DQAAYOARSqYyiEPHsjWDMWgc3G2WLXvmh7W8PKzltdvVZRYiax584gNNDhVqy/2fM4uybPCGjoM2JBnEbTZ40WZO+Q8NxgBrYPA6z9zgbbMgPqebf1eo0Nc+0O9uM8sAAABOLYSSJ7vVFVaANnO22s2yAVWnLTOtcO/p1WYZTnU19x/WjaO/qO0PF+hesxBe29YpcsN3tPeGn+qYWTbAjn3/O9p7w3cUefA9s2hAWaGG1YPK+jpRA44kYj3XPF/LNXSqufMgE+/5a3w9dJW55wCyAjt6AdvW/lR7b/iO9t6yTp+aZQPqPXXeYr0HHVxrlg2gnxfogVe+qNKZh/VMuVkIAABw6iCUBDDIfKIbv/axoq+co5ubzDKgr6zhnBdNkA4+boUV1tdbKhhUoVc2RI1r/I723rBMndvM/QanzgZnvRvUWVI5eMLj6rEaqlYd3BVV3piv0eMTGau7/xxtj36syfN7VGMWAgAAnCJOKy4u/szcmEw4HFZbW5uOHz9uFg0aZWtadE2pY0Nkg5bPXxT/tmjFXtVM6tCL5RXaE99aqzlNN6pwx0o9trTOewxD6ya7d1/Fei1cNFldm8J68zLHz3RvV52nZ2KNpm9erIkFse+j2lk7XlsaY99bddCmsBpH7lXNpJC9PZKoq32+wtiPmJznXdCoZbMcF2G0g1u6uvmd271P4DYLcq44q01K4t+b+wZos16wnpHYsaQu+7nwcNx/396eadoszrOff/3NNvavV7D2Na8x9fORWzX3H9aSr52uDVen6CVZfbfGVyaeDKlV+5y9BKfOVekdE/S3BnfvmPyHfqbRQ3bpnVvWSfcu10UTHG1g6Nn1hN277yqN3FipL+x6Qn/VHMfPGOe0nW4cN3EcS/5DP9NoNWjvi0UqvWOC8uztnfG6WucbGv8Jk+O89nXGjqGPrGtL1lMpXd2swO52jTwrscW5j/nzJue++Q/9TKMdtyhxfV7mvma90rdZcNY1SAcfTx3OOZ+VeHumeq6S1D+TNpPf/q0N2vv931r/njpXpXdcoK7Hm3XGHZUaqqgOPr5Mx6+xz++8/9V3a3zlOWmuM/FsR9orXa8pb9uaz6V17sSxrXI1fEeHi5zXkOJ5NcXqn6Sd4z/vbBP5vB+Y5VKA+sfa/qjrdR2/t8Zry/1MXqCuAMdytfeDJRm/zv/W8B11j3U8a76vd/M6zfep9PfJ8wwaXM9soLaPSVc3v2fEeZ/Mnzc5j2e+l3nvd5znnGa90rdZr93WrdaZXYpsLtY3fm4WAgAAnPxOqlCyaMVeVRwcnwiIYmGPI3AJEkrGZRI6xc/hdyw7XPPUQ47AyBHAxfezAyZ5Q86yNS26Zph3u5d9jMNJQqfYNbiC1BpNX/N17Zkf+75WczaPUqPjXFZA5hN4pWszpwWNWjZruPcY8bJSV/AWC9ISAWdmbZZeLNBzX1fRikaVba3w1jHltQZsM/sYcj4vFeu1cNYBPea4X9bPusPKsjV7VbTJG9Kmfs6Sb3O9dgbMP/TMxg80+XCRSm4/wyy0TJ2r0mvaFYl/8I19+PT/EO8Jj8ygyRUU+A0xdnwQjocA9jmPuD+AWwGGtx7yDevMEMAblPkHG/78ry0m1kbuD+an33u3Qjt+Gv8+/6HlOvNFRx3swMEMztK3mUOSe2Gx29YZrvgET5m0WWp2OyhZOyX4tqfPtXjuuV87SgHazOc5NtvHDiX1kdS19mmp+nYVKqq8I83a+9ZYdwiZQShphTwp2tbnOYgFV75hevzeJW9v3/aN8WnnGLO9PXWN1cMVjiXZ9ssiHXac33y9xZ67ZAGtGr6jg2utayx8zy9cNl+7/s+A/74OztAsfg0+x0r6fuPzTLmOlew++ZwjKf/3xLhYeGneg4ekgynuiVV/b6CYts2cUrwWvM+x3zkzabNMfaLfvdSu0n0pfucBAACcxE6q4dvtS41QpXG2Xo5IKp2gMsfmrHP1MlukNyNS4cVfjy9CU7RiukoU0YuOkKl96ePa2R3SxFm18W2S3dsxvl+d9rwdlQqG61z3XllTNssMJGXN9xgPJCVpkZ42Ar49m7arSyGVTuuPQUc1ml5RKkU2uEJiq82kkgpjgZ9stdmCGzyBpCS1L/UJJNMK2Galw1WoqCJbHWF442xXICnVqGiYpMguV+/JPfPd9Qz6nJ07LCR1v6k9rmvsTSB5ix5taFBDsq/HbjF/IL3y47okJEX2pvhwtm2dI5CUNWfYtlZJJSroz9VVXb2S3lP0vahUMjYxlHTqXBWVSJ0Njg/J29bpr7uiyptQaQw5jerg44n9Pt3xF/UopDPCrp2yp7rSE0hK0qcPJgJJSTr2feND+9oGHfxI/TY89fR7p2ioWrXP+aHebjOVTDHmPsxCm039mgrPknree6UPIYLTGJ05RFLrW65gxNOOQcTvkTNk+a0ONrRKZ03QsPizHVLekeb48fPOOqp98ddDhu0R89EuveMId9xtO0ZDp1phkjOY+vTBp3XwI2noVGOxmo926Z14fezXyVlDsvz8nKMzp0rSVRo2IaSeXU872ttuM+fzM7VIX5DU+ZbzfeO3OpgiTDr93uVJAsnE0O3utYpfY3+9Rlxcgd5v1d3qfm3mXzNBeR/t0l8d9+nY9xvUqRIVmfNe5uQ+xSSeIXdg+VtHIGl/b9yTYy/uUo9CKpzUH/N2xp6fJ1z32GqzkEZeY0zn0C9tdoZ27ZM07O8M4QYAAKekkyqU9NN2OGpuyrrW13x6IMbVqOzikCdQkurUfljSsFGugK3r7T9k2LuvL2p1SWkvz9l4oP9Wnq74ukoLpK7D+4wC/8CxV/X3UXZZqSesyyq/Not0qEshTVy0V9MrzMIY+1kpvVHL1hghdlzw56ztcFQqmKyaPq/e/kvdWVmpymRfC39p/kB6o/+ukL6oDvPWp9NyRD3mtixLF2SdPukC5cWDioRP2486QhTbR39RNNPQqg/yx5b08pzv6fgRc1u2jFFoTEj66IinXX0Dx17Vv7/Z7VNS2edFWPLHlkg6quPmNa59S52SvlCUCGVc4ZpP+yWENPIOY7EYvxWvj7S7j2EvnHRwrSPIPdLq3CNpKJPuddJXnx5x/E6vHquhiqprh9GLr+WI+/nZ1q6/SRpa+TONDPAfF2f69J5zyh9b4gqiP20/Kp11gUL9vICQO1Q1XaWCEr/2b9UnH0l5Q5zTXfjt14/sZyh1/ZOw712/qB6roZL+1m72ArUCXw0pysmzHTn8RSn0d6WYAQcAAOCkdZKFkrWa09SiZY4v17x5A2K0hhbYgZJRt1RzMOZExSgVSuo6aM5L6FW0Yq9Rf+dcj/0jeb2GqyhpgNdbdm/EwweyEnAqaJs1ztZj5RvUqpAmLort1+jp2btnflh1O6Ku52jhCme/iuDPWfvS8Vq+KWIFk7H9koadg1P+Q0bQkmqeuhw5fUhIUolGmysGu+a+HAh2bz4zePIz1bvqsXOuxH6Rol7OIG6wOvb97+idXVErmOzraswpAkYzVArGZ6GbFL0DU/EGNzFG4N7PrNeZ/e+ic/yDV8/7wW918IYnrJ6dlbH9kq1CXqKRE0KSovqkxSxTIvxzhrRr3/LvWZdLdm/QvAm3u9tio3uO2AERHqK8pO3pdvq9y436p5pDMhtS1KvPvSABAACQzkkUStrz6XVvV115WMvtr7od/d9TMrV96uy2h3g76hX/ynjewyyye+4Vjkw9aMg5l2Oi7htk9pvJnQ61Z703o7dHYV9k1maL9HRsn00RSaW6xieYbF863j7OSu3slgonLXYEkxk+Z6sr4mUvRtL1wkymH4ZvB5CY78sRtDy+q997SqZj9eBq1T7XSseDYcVjuzef0evHwzmXo6Pu+/wf2pxIHoT1kt3rKttDbT99cJndXlbwlTfh9t4Hk0l4eyoOFj69O/uNHbDbvWatXsg+wav95e7l+J46b3G+X4Q08g6/YLJV+254Qgc/SlJu965zh392cOacziHX7Ge7Z9cTnnbYe8N3/Od5zBWz52oSzvkdE3VvUKe5Y66k+E8CAAAAZMfJE0oumKASSa2NvQj57J/1CBjapZbdsCvGGoLbi3kTXawgyzn/pZc9LLh7uxqDzDmYjTZr/IMi3VLJZWZIlmyIcnZYbXqJyvrcCzPDNnNaXWEHk6l6g9Zpy0w7mBw2Or6tt8/Znvl2MJnxz/bD8O19n1dUH2t47LI8rF5Kak3MqRec/bMe/sMbM+U7TLuPsnXMT49E0w4vtYafR3XwxSDhRTbazGdeTluyofBBVa+qV319vdbdN8UosYdlpmmLZKx6pfKeOm+xg0lP26Rus2NvtfrXK9kQ5VzZ9oq6PpKGjjV7AdrD7435NIOynskMe6JVV2qkc07QgGGXx7Z1itjBpP/PvqfOW+x5Be+42/V8WlMh7NI7ZujXEGBeWzvQNGXndZ76+eqdLB0zNnze8ww5xaZz2KXDAV73WWkzu4erd77KZEPhA5q2ROvq61Vfv0qpHoeY0mEfS9HPK2IWAAAAnAJOnlAy0qEuuYOssjXe4dvtBzskleqSBfYGe5Vnf3ZoN+kGT6+1TOzZtF1dBZNVk3FPtORi13GFawhvpuq0pdEexuuqW42mr4nNN2iHXc6wrmK9FvoNRZay1GZ2vUpv1JzYfZJUtOIOayGaTanm8Oy99qVb7GHU7l6KRSsaU8z36Cd4mxWt2Ou6RsXmtnT1Bq3VHHP+R595N4M9ZzWavtnshWnNLZrNoeu91nSm3oxKpeM/MUts1odkV5BVfbd3uKbnQ7BzlWFTbF5Ac2GVDK1tsHtXuUOMPrFDl74OC/30wWbfgOX0e++OX7P1Id/5AX2Mhv4y2fDt7LSZVa8SjXbOxzh1rv5pQkg9uxp6FXZJ1RpnB015Y6bKjCXji1h4esFdpZGOephBbqwXl9tVGmnO0ZhiDsaUbRZ7fqqdx7tKIytLehnCZ4u9kFRJpWs+xtPvnWMtzBMoxPaynjefBViSia3e7FzIZds6tbdKQyvNe2movtvTczUWwicduqvf6uDju9SjEo2O3+MUYZU992fsPSd2ffGQMlZ/P1l5nSfuk3mtvZfmmQ3stzpsT3HgrpvzNWefyxnMT52r0mTv21lpM6teeRPmuK4v/6FKDVWr2tOuOJ5E+Gz791FY5Z7/GDF9ogmjJR3+vJJNWAMAAHAyO624uPgzc2My4XBYbW1tOn78uFk0OBgBY9eOlfqN7lDNpA69WF4R710XG1priejF8o0q2rxYpW+vdK32bLGHhTu2tG4KWysVV6zXwkWT1RX73la2pkXXDDNXtPYeR85j2eWFO9x1sOrqrr+7zPEh2bGKdtka71yCMYlz2uzrKIxvMFegrtH0zYs1sSD2fUQvlu/SJT71tXiv1WyzxLkczFXAPYFxxGiHzNssPfNarecocXzvtSU462ceJ3mbee6V2Q7ybzfPfZSS1s+9r3cf9zUOrJr7D2vJ107XhqsLdK9ZKHkDxo926Z210j/dMUF/cy5MERuObH/b2fAdHS5arovG/MWxinbMGA39pXvutZ5dT9irDVvn+0L8e4sVUh3VPseqxYoPL3dskFyrzuY/9DONHuJcyTtRV1f9YzxhRmv8nP5BmSVR/5hU12gxj9fZ8B11j/Wpr5TmeKlC4ET9Ld59zQVGMm2z6lX1ui4s9ex8RHN/1OwutHnvk1kvY5+PdumdW9o1bGOllOI5k0/9E1K1WYBy1zXb+8puF/s5iZ+7+m6NrzzHs+K6m932nlWRfaR4Di2ZvU4SZY7nN7bCvU+bWsO0/a/Fcxw5jpV0H7P+Seoav+5W7WuQRqdoU+t5Sfb6bNW+Gxp05i9vV+F75mszTfsmedZTvS6St12m9yn1M+l9HSV4XgeprlHyOVer9t3wlgp86iulOZ5vO9jSPRtGeeZtNkVLnrxLl4dSvwdJkm7rVuvMT7X94WG6ucksBAAAOPmdXKEkgJPAJ/rdS+0q3VekktvPMAsBABjUpty3TndNzFPLC1W65ymzNOYfembjB5p8mN91AADg1HXyDN8GcJI4Qxte+aI0ul2/u80sAwBgEJu2RDUT86SW51MEklLN/Uc1OfRFbd9MIAkAAE5dhJIABp26+4dpwz6pdOZhPVNulgIAMNhM0ZIn61V/5+XSzkdUdY/vHA6W27q15GsfK7KZYdsAAODUxvBtnNQ88zX6MufQxOBgDW275O3zdOn9nzMLAQA4AfG7DQAAIIZQEgAAAAAAAEBOMXwbAAAAAAAAQE4RSgIAAAAAAADIKUJJAAAAAAAAADlFKAkAAAAAAAAgpwglAQAAAAAAAOQUoSQAAAAAAACAnCKUzKWK9VrY1KJlTY0qM8v6y4JGLWtq0bLN61Vklg1m8bayv060+p9IbutW60vdetDcPtjNW6X6+nrVP7lEU8yyflK9ql719fVad1+uzgjF2j2H9zlzU7TkSevZWDXPLDvR2NeyqtosSK+8R6+/dFjPlJsFAAAAAOBFKInBqXG2HisPa3l5WC9GzEJkTXmPXp/Zpegr+brXLANyZNCGjtOWaN2gDBqrtWowhuNNedqy72NN/t4J+J8cAAAAAHLutOLi4s/MjcmEw2G1tbXp+PHjZhHQb8rWtOiaYdtVN3O22s1C9MEn+t1L7SrdV6SS288wC3ESqV5Vr+vC5lZJ6tHuR+fqga3m9gDmrVL9teG+HcNWvape1w3ZrUe+9YCazcIA5f1m2hKtu/NydbxQpXueMgsHUrVW1V+n4Tsf0dwfZbtFpmjJk3fp8iPPq+qetWZhAP/QMxs/0GQN1QM35KnOLAYAAAAAGz0lgVNUzf1RlapQGwgkT3pr76lSVVWVqqqeV4uknp2P2N/3PkysviQstezW7mieLpw8yHrsYQB9TjevGapoqFML7/+HWQgAAAAAcSdRT8lazWm6UdoUVuPIvaqZFLK3R/RieYX2uPat0fTNizWxIPZ9VDtrx2tLY2KPohV7VTOpQy+Wb1SRc9/uWI896xilb6/Uy8MW65pSqWvHSj128AYtm1XqPmbFei1cNFmFsYPHj+FlnTdWd0mRDVo+f5FzFynWe7A08X3XjpV6bKmjT8qCRrsetiTHUYBzFq3Yq5qL31TdzAOqaLpRJfZ2zzkzYt2v2LH875MlXU9Jsy3M+seY+/nW37xXyeoVqH3Na/Q+ZwPH6iU5/JXzdOn9nzML7R5iF+rdR+fqg2sdveyifr3VrF5biY54LXq+6h4l+lg5el69cJ7W3Xm58uySnlhPr/j5mnT2ndcpbPe+i5/bed54Dz1bS/IeXWYPwfj5XMz6e3v+mcdpSdFzztzXPGf1qnpdJ29b+B1zyn3rdNfE2B6przWY9D3s0tXfYh1HL1TpuXPX6a4x7xrPhf95rOvpsJ4Puxei4+rcHPc83lPyKakmTZulez6m3Ber7we63nHfnddptoEpcV772Y6/fXqfHZc0dZPfuR37eJ4Hg/demc+2+dq0eM4p/7pl4sEn9uvG0YXacHUBU0MAAAAA8HXS9ZQsmdViBWjlYS0vX6md3aW6xrVISq3mNC3WxMMbtNyes7BuhzRx0V5Nr3AdSlKprmmygkdr3w1qLZismjW1iV0uvkNXHF6puh1RFV58hxbOkl4s36BWhVQ6rcbaJ+D8iFY4KO2stfZdXh5W3eHpmrPAvZ8VrkX0or3P8vKwXh52h7v+qyvsspXa2e3Y7lKj6Ztb7PA1dqwNai290buwTMFk1TRNV2esbpsiKpy02FO3QBY0alnTjSqJJO7B8vJdusTZrgEVrdirS15LtMPy2u3qKr1Ry4xjBWozO5DUjtj9Dmt5bYeuMI5VtGKvls0a7rhPdpu59rMDSdc1btHQBYNkwZ7bjqtUX9SbzT6BZFyeLr/TDtBivexCl+su5wIY05ZonR0+WftU6fmWsK6rXyXPMhnh61R/54V691G7194LLcqbeJdrvr4L55Xrw0cfsXrfzVtnh3ctUuhCTZ1m7/TUPfa5HtHuaOJnTVbQ0qLn7XpVVVWpaUiNlsSOY+1lhTYtsWusUlVVk86e557fMN7T8NHd6nFsd7Pm+btuyG49EjvWo7uliXd5Fw0JX6f6O89Wk73fIzt7FL52natuVgAl7Y61V1WVHjlS3q/zGwZrM0nzximsFr3xlNS8/V31OO9PUFsf0Nz4M2OHkI7zVpnhd+hy3eV4fqw2cz9nU+5bp/prhzva7Hm1hK/ztn/oct1VX64PkzyL5v1uecFRrypnENqsB76VOEYq1avqVX9t2H2sN8e57ueU+9Zp3JuO8kd3q8dR/+YfzU1cl6vHq/XlCiQDvTatRW1cz2ya11VQ9+4tlNSlCbeZJQAAAABgOelCSXcvxDptaYxIBZeozA6filZMV4kietHRq6196ePa2R3SxFneUKx1U9jRm26R3oxIGjYqHiwVFnTo5Vh5QUhdmxK96gqHjbb/Fcy5w0JS95va4+hJ1750vJ5e7dyrRkXDJEV2uXrv7Znfix54C27QxIKodtY6ewIu0tObIlLBZFUYgWPrJsc5Vu9Sq6TCkXbwGliNpleU+vQsXKSnPT0N0/O0T+NsvRyRVDrBscJ5wDYrHa5CRRXZ6ug92Thbj7nqVauKSSF17Xjc8bN2m5VOT4ScFaNUKKn1NeMak/T2TOXrP9iohoaGJF8bdf+/mj+R3oPju6ToF/X7JrPE4OottVbP7eyRwuPioUb1tZcrL7pbdY4wZO09z6tFYZV7FuFo0fPO4cJPvaEWScPPje2Xp7wjTfHyvFCHno+fO09nmz25Upqi84ZIannD1Sts7T1GL7Zp52m4pJY3XXvpHjMQC2DKfeUKq0XPO3926wOq29kjhcuNYK9Hux9N9Fhr3v6ueoxrPH9InhR9V9sc9W3+0Vxvz8CsCdhmig3dtvfbuk3v5mQIt7sXotVmYY2Lh3rVun5innp21jnqu1b3vNDi0/5SywupnsUsm7ZE5WGfnp1P3eP63nN/tz6gpha5XnNBBXptzrtel4d6tPupzJ/3tH5+piKShn+JIdwAAAAA/J10oWTX239whz6RDnUppKGlklSjsotDnnBKqlP7YXfYaImq0+jZuGd+WMudwZLrWN79M9F2OGr1SDR7KbrYdfX0zMtc2WWlkjrUboaZvoFjRG+6wtFeqvi6SgvMsC672g6b3XwCtpn9rPj3mrUtmKASM7iU+ZxJajygLrvnbq96kzr84Yc3qLKyMsnXDbr/f8yfSOcfGjVM0uHPp12Ewh3WSc1tHZKG67xpklStcWGp571tRqDxvj6MSnlDzndtVfRDve/asFb3GL27XOfz7J+JZn1wxO6RaPaSc9r6gTokha/t6wrLUzR1TJ5vnf0CRzNs9PP+kR6rR1/OVqUO2Gb2fU/cK+vn8sZM7d96pmuzeeMUVo/e3W7Eay0fetvf7uWZK1MmX6i8Xp7z/SPJ++YmF+y1WX1JOH279trn1RGVQsP+bhYAAAAAgHQyhpKpjdbQAjucampxfbnmJBwg7UvHa7ndS7EmVjefEG3P/LDqdkRd17FwRaY9Fm3dHWozt9ky7ekZiN0bsS/hrVut5hj30jU/pi1QmzXO1mP20PuJi2LHa3T0uJSKRg6XXOX2l2seSlm9Iu2h8yWzYvulCDtPRHYvw7yJd6m+vt7x5Zxjb+Csvcca4qvwdfG6rfP03lyre+zhquFrY/V3D6POyJEPkvY4y7QXXvOP5tpD1y/XXbG2TRkW9l2gNrPDvw8do5XXvmnV8/o+Bbt9M+Xc4fEpB1zPY6p5K3PE6vXqDay9rCkAnPVPNYdkUoP8tQkAAAAAOvVCyX3q7LYXJXHMLRj/6sXQ2qyLzwVpzz+ZpHdf+9Lx9n5W8FU4abE3ZOujrsP7zE19Z/Yo7BN73sbu7fYcotZX3Q6zp6QlWJst0tOxY22K2POKJoLJ9oMd9oI1Ps9PedgYal+nLTPtstrt6XthJtEfw7ezwu5laM5rF//qwyIZ2ZKYg88KHvMm3uUN2ZzzAj66Wz3K0+V39iGYTKKjLVlcmUJ8/kx73sW0vRj7Ll2bVV8S9oZ/9uIt4Uv6t26pWL14e1xzcDq/+m/Ye3pWr9ezZfQdNtjzmxpzaz6ysxc9JU+A1yYAAAAAnPShZNG0S1QYH3qcbJj24LRnvh1MpqxvnbbMtEO2DHs27nnNPd9mXLIhytkQG9Z8mTdozdiCCSqR1NqYaZgcsM1WV9jB5HAVxdqot6Fq42w9ZgeTmf5s9odvf04HDksa9neZkWw67uGeSYZpD0rNeuBbdsiWqr5bH9BcO5jMbA7LZm17zz3fZkxfhu46rb3HDiaHnOcdJj1tidbV16veb4GhXvNrM3tYsE/YZYWm3utPsIe4+wgW2qXhO0y7j+xwL9NeriYrMHXOf+lj3jiFJbVsDTK/Y7rXXrpyi2+7z7s+eW/KjJ6zv2t4SIoe/rxZAAAAAADSSR9KVqzXNyeF1LVjY3zexz2btqvLXEF7UKjR9M3uocJSrS4plXT4gCN0q9Ucc85Je57GjHs2rt5oLfDjWhG6VnNmlUqRLZkvnBPIIjXaw6jdvRRrNSfTexLp8AScZWv8hm8Ha7OiFXs98z965t20F9IpmZWmx+OCRk8vTCsgz+bQ9d67d2+hFPpYV5abJSnMW6Xrws7QpFkPbG2Rwtf59D4caNVaZc7FOG2qLgxJPUccg2jnrfLU3QoR3cOTg2j+UZNaFNZ1xurkNRPz1LPzOdfiMelN0ZInzeDHCgT9hohbdVb64CulAG2WbN7G2BDu+PntUCw+z+QULXky+dDhWGjnXRwpA/aiMOYq5n1jX8fE6wOEcCk89Zw9RYBRt3mrEnOZtnyoHqO3afWqZMO3Y/N/ehfwsQR7bcYWC4q3+7QlWnftcPX4dzaXwmfHn7O09+q24yqV1PF/nzNLAAAAAECSdFpxcfFn5sZkwuGw2tradPz4cbNoELCH8hpbWzeZQ2oVaN+iFXtVM0naWZtsVesaTd+8WBMPW6tIu/e3j2+vMG2V+X8a79qx0rG6t7de7nJbxXotNOYwNK+zbE3yeTLd+9rXUZAoN89p1b9DL5Y7V+m26lroV78gFjRq2SxnBSOu4wduM+M4XTtW6je6w1vfAG0mv3Zzreae4Fs/Y1/vPu5rHFif6HcvtWv4K+fp0vt9QoNpS7TOMxefe/XjuLT72oGUduuRZKta28foeKFK9zxl7D9vleqvDcdXLq5eVa/rkvSGc61u7FMvz+rHkqbct84Iflr0fFViZez4sFrHHgnp9zXPWb2qXtcNMdrCdf3xPT3H6tn5iGthoLj4tZr1sSRvM+Oepmkz37rH2fWNr9jurn/Pzkc0t+161V8r3zp67kM0cR7f8/q2mc9x5D6WVd7he9+G+7av9z7E28SnveIc54zx3AfX6vZWSBkbCi+7zepU41Nf+Qa9nufDt37GPXed03p+tKpe18mom+Q6p+dchgef2K8bhw3VAzfkpV1QCwAAAMCp6aQLJXsdkgGnmJr7D2vJ16TtDw/TzU1GYZLAB8CpLRb6mmG7S3mPXv9epzo2F+sbPzcLAQAAAMBycg/fBpBU3f0hRfSxJs/vyXhuSQCnIHs6ArU8nzyQ1D/0zPxOhaJDtYFAEgAAAEAKhJLAKesMfePhoYqGOrXkiU/MQgCwTdGSJ+tVf+fl0s5HfIZ1Jzz4xAeaHCrUBoZtAwAAAEiD4dvoO5/5Gn3Zc2xikLmtW60zpQ1XF+je2DaGbwPIVHmPXv/ex3rTb0oIAAAAADCcRKEkAAAAAAAAgBMBw7cBAAAAAAAA5BShJAAAAAAAAICcIpQEAAAAAAAAkFOEkgAAAAAAAAByilASAAAAAAAAQE4RSgIAAAAAAADIKUJJAAAAAAAAADlFKAkAAAAAAAAgpwglAQAAAAAAAOQUoSQAAAAAAACAnCKUBAAAAAAAAJBThJIAAAAAAAAAcopQEgAAAAAAAEBOEUoCAAAAAAAAyClCSQAAAAAAAAA5RSgJAAAAAAAAIKcIJQEAAAAAAADkFKEkAAAAAAAAgJwilAQAAAAAAACQU4SSAAAAAAAAAHKKUBIAAAAAAABAThFKAgAAAAAAAMgpQkkAAAAAAAAAOUUoCQAAAAAAACCnCCUBAAAAAAAA5BShJAAAAAAAAICcIpQEAAAAAAAAkFOEkgAAAAAAAAByilASAAAAAAAAQE6dVlxc/Jm5MZlwOKy2tjYdP37cLBq0QrO36KJz/qTXHvuBPjELg7r8cX21crRjwz69s/wORR1bEFSpVm6er68WxL7/SK/W/lCLG917nVBu61brTGnD1QW61yzLihpN37xYE+NtFtXO2vHakqrNKtZr4aLJKoxvCPAzSKtsTYuuKZW6dqzUY0vrzOJ+kdNz9vuzDAAAAACAhZ6S6diB5LE/PaRXl0+3vwY+kPz2mofVtPlmlZsF/aZca5oe1nMrSs2CDEW0eOb3VF7+PZVv2m8WDryKm/Vc08Nas8AsSKK8R6/P7FL0lfx+DHHqtGVmWMvLw1q+KWIWesUCycgG62fKw1peTiA5qFSs18KmFs0J+pzlys/ztT3apRs39qjGLAMAAAAAIIsIJdMIXTRa0j4deOn3ZtGgVb7iB2pqejjF1x36tvlDg5T3WgZT3T/R777XqdC+Il16/+fMwgFTNO0SFSqqnZsWmUXooz3zrZC333ssOuT2nJ/TzTcUKRLq1JInet23HAAAAACAtAglg+g62vuh3wOgaekPrZ6I5d9TeflLikg6tmONY9vj+i/zhwadUq3c/LAWT5JerY3V+3sqL39HZWty1z80lZr7oypVoTbcfoZZNAh0qJ2ekeiVM/SNzYXS6Hb97jazDAAAAACA7Djp5pQ84+pNuuyf89wbu8w5Ja/UiIXfV0l8wr0etf5ilg61xXeIy8qclLKHBS8qU7653ZxTccEdappVnCiOvKTy+U3Wv5Mew9a9RytnPiN7b1u51jRdraIda3T9Uv+hv+UrfqDFk85KbHCc01NmOGYe16y/9us3yULQBXeoadY5vnNKWueVb5nJU0dnmzl8e83D+qZj9Lmz7maZKbLpe5q/2rnlE/3upXYNf+W8FL0kazWn6UaVxL9PNq+juV9EL5ZXaI9rH9uCRi2bNTzJcSxFK/aqZlJH8mNkUdmaFl2jDVq+aZRrDsvWTWE9HW8ve07Mw979vPMkBpw/0zNnZrI2S9O2jvZsn2XN3ei3X2xexxj39dkq1mvhoksUMY/VvV11M2er3ec4JudxzX19zyn5XKO3zYLdJ6d/6JmNH2iyhuqBG/Lk30ezWqvqr1M4uluPfOsBNZvFAAAAAACkcFKFkqHZW3TR+e5FaLyh4q0qWValEe/X69X1v5DiQabiwaRvsOlw7E8P6a1MhnPbYaLiIVhssRd3YOcN4qxAsdQnZPv2mof1zWF+IaQpVSjpVw/7nJ6AM9VxbBU367lZh3R9vK5+x3dIGkraPyezDia/4/vX3wod3fX49pof6J82Gee271W7J4Q03Nat1pmfavvDw3SzbwXtoCiyQcvnx4ZR12rO5lFqtAMqKRGuyRHOWWFUkpAtWSi5oFHLZqVIu1z1yJ5EcJYIwqxQVI46OoNGR2Bm1zkRjHnbzHss/zZTxXotnHVAjzmvMdYm5j1YIz0d+97ZbvH97PoqESbG2efu8gvznEFp/Fjea3Lu63scU6p97fo7w12rzUJJAs7Ec+Xbtg419x/Wkq8p+TM+b5Xqrw1L6tHuR+fqga3mDgAAAAAAJHfyDN8+94cadb50qCH1IjRnXH21Rmif3rEDSUn65KUn1NqVp5J/vdX+flZ8UZt33rd7WsYXuZmeWSApqXxaqfK1X1viYV5Eixv3SypWWXyhi3LdMOksHdvxjCMka9L8Tful0n/RyorYtixacLW+WvCRXq11Bob2OQvKdEOmi3A0PuMIJJXkOgOo+IrGFkjH3v5jikAyk/qX6p+GSYq84wpG/2u+GYYG9+D4Lin6Rf0+WQUrRqlQUutrziBwkZ42Qq6yWZNV2L1dv3H0Ftwzf4NaVaorVmSw1MjqiviiNnU7onb4FFvkJtwvgWSCu2de+9ItalVIpdPM+kf0onPBndW71CqpcKS1X9GK6SpRRC866tq+9HHt7A5p4qza+DaVDlehoopsdfTfa5ztDiRVo+kVZiAp6x74tEXXjpWO/eq05+2oVDBc5xr7BeI65yI17ohKpRNUZuzWd4lrdPY2tdpMKqlYryLX/lHtrE0E3e1b31SXQhqaJMuua/6iovpYw0ebJban3lCLJEXf1TYCSQAAAABAhk6aUPKM8RcrX/t0dLdZ4nSlCi/Ik95/zQguf6+/HZV0zj+pP2YHvGBYsuHPH+lILKdccJFK9ZHe2mr0Qowc1TGdpSFJgoO++PZlxZKO6q9mMLf6HUUkFY3MwkkjR3XM3JYlwesf0V8PSyq9Wk1ZmY/yHxo1TNLhzycZ1iqp8YC6JJXMSrXCcq0uKZW63v6Duzee9qmzWyocliwNGmS639Qe1z1IUv/uDrlnSFikp+MLuNSo7OKQFNll9A6tU/thScNGJQK2SIe6FNLERXs1PVlYX/F1lRaYoXByXQfdd7J96Xgt9+upGoB5zvaDHZKGqyhZXXvLvsauw/uMgiShquc+pdH0eXVIGv6lf5gltrW6p6pKVQzdBgAAAAD0wkkTSgYzWl8olHR+lb66bIvr66LzzX2z57827dExFWv6ilhIVqqVFcVSd0RNdkhQPvIcSWfpq4uMlbJTzSGZDd1H9Rdzmy1/mHNuyGC+vWZw1v+/5n9PK3d8ZAWTdt2ei9+P/rBIT5evtHqszWrRsqYWLWsyQjS7N2XhpMV2eezLOafiqWK0hhZIKr3RaAufORgbZ+ux8g1qVUgTF8X2a3T3RLR7U3YmmWngZGIGqgn9EIQCAAAAAJAlp1gouU9/65L0fn18KLbrq6+L2SRTeo7yJeVPmm8HYt75EpsOHrUXvXGuNJ34Sjm/YT85dni/uSkla95G4xpq92TeU7LxkNol5V/8FfWlX6NZ/8Sq5Gv0ard1P/o3mKzTlpn28Ona7d7efXZvyq4dKxPDrHM25HqwsXpXKrLB2w7lYS0353a0e1kuLw9r+SZrntZrnMGk3Zsy2dDkUwMrsAMAAAAABq+TJpT8pKNdUpG+4ByvaM8zmdC/w7T92b0iIy+5g0ZzAZcMh2n/5fBHUsE5usAsyMB/vbZfKihVudmbynco+X4d6U7Ve7JcZaWSIv/b63kaE5q0JyL/ujlkVn+niBbPtINJ83rsQDT10PXP6cBhScP+LnPWxKQaZ+sxO5hMBGVJhjnnSPWqetXX12vdfVPMor7JcOi0xWeYdlCrK+xg0tEzMDZ8/jLHXJQDpOyyUu/Qabt+sfk0e6XxD4p0+11jsqHwGSr/u4ZL6vi/ZKvLV2tVfb3qn1yiLD9BAAAAAIBTwEkTSmr3azqkxGI10q0qufWfpa4e127R//mTjhX+sy6bHduvv9nzGQ4bkbrXX+Mz2hKRSmf9INCiNlbPSueQ8F5Y/ZJe7T5LX11ws6Nu5Vozq9gnXIzNy5hs0R0rtFTpRfp2bNOCO3o9fPu/5r+kiM7SVxeZ7VGuNbF5IQPXv1xrNjv3cSym4+kNaoevk65OXIePe/cWSqGPdWWym7qgUQuNhWqKpl1iDCmu05bGiFR6o2ff/jdF5w2x/pU38XpVm8W9VqPpC6zFexoz7N27Z9N2dRVMVs0aM2RzK1qx1zNPZ9llpUbPwNgCM2bb1mpOmuNn1YJGXVMqtTaaPT3tQHrSDX1YACfx/Djbo2jFHZpYENXOTZmEwl41Uz5WSF9UhzllZcy8cQpLUuhCTZ1mFgIAAAAAkNppxcXFn5kbkwmHw2pra9Px48fNosHh3B9q7K3/bIdgPWr9xSx1jd+kyy54W6+5hmbfqpJlVRrh+FFJOtQwXa3GQjmh2Vt00Tl/Mn4+U+Va03S1/OLDyCb30OzyFT/Q4knGwjjd7qHeMZ59ffezzl20Y42uj6/+7VSqlZvn66uOOQyP9Xpf4zq792jlaunORWVqj11nxc16LllQ6VN/a0i4Y4P26zflztW209XJ5nNes+0TvPfLu+8n+t1L7Rr+ynm69H7/nmRFK/aqZlLIsSWiF/0WT6lYr4WLJqvQtdGxorVvua17u+qMoc3WeTv8z+U0b5Xqrw1LatHzVfdorVkeQNkanzkfPSte12j65sWaKG9dvWo1p+lGlRhbWzeF9bSj/T3n9WkHyQoFl81y3Ul3u9jl5vHd/OtkcRzP9z65VyZ38x43UQ9vWYL/NSQtj7XXMKON7Pp2+V77P/TMxg80+XCRSm5P1q+8Wqvqr1M4uluPsNgNAAAAACBDJ1coOSjZAVfSwO0jvVr7wywMeUau1dx/WEu+Jm1/eJhuNhPjE0LfQyXfsOtUlTLkO8Hc1q3WmZ+ewM82AAAAAGCwO3mGbw9WFSNUJOnY23/09HT8y+GPjC04kdTdH1JEH2vy/J7gc0sOItWrrlNYPdr9VO8CSZysPtHvZnZJ+0IEkgAAAACAfkMo2d+SrSRdcbPunHSW1B1RE70kT1Bn6BsPD1U01KklT/R+cH/OzVul+vp6XRdu0fNVc/XAVnMHnLr+oWc2tqs0OlQPJB22DQAAAABA3zF8Oye8cxQq2dyHOPHc1q3WmdKGqwt0r1l2kmP4tsPJMHz7FH6WAQAAAAC5RSgJAAAAAAAAIKcYvg0AAAAAAAAgpwglAQAAAAAAAORUxsO3jx49qk8//dQsGlBXX321/vjHP+ro0aNmETAgzj//fHOTy601t0iSFt+3xCwCAAAAAAA46dFTEgAAAAAAAEBO9aqnZHd3t1k0oGbMmKHm5mZ1dnaaRcCAuOiii8xNLrfNr5Ek3X3Xd80iAAAAAACAkx49JQEAAAAAAADkFKHkKa5sTYuWNSW+5iww9wAAAAAAAACyi1AyZ2o1p6lFC1dYw3b7qmxNi5ZtXq8isyBDe+aHtbw8rOW129VlFp4gilbs1bKmRpWZBQAAAAAAABiUCCWBfnOpvrlynhbGv27Uv5GcAgAAAAAAEEoC/aJsqm5ZebmK2nbrscVP6bHFT+mVti9ozDcJJgEAAAAAAFh9u58Vrdirmkkhc3Nc146VemxpXfx7z/6RDVo+f5H174r1WrhosgoTpW7d21U3c7baY98vaNSyWaWOHSJ6sbxCexxb4uxjd20K6+nVZmFmzGswr1H28PNrHFXz28ca8n6jSuLfR7Wzdry2NPqVmVJcaw7M/f88qK+F3tezD2zTB/Gt5+rflvybxkR365NPvyqx+jYAAAAAADhFEUrmjBWiFfqGb5JUo+mbF2tigTNMs4M3M2yMhXrDvNvjKtZr4awDeiwWaPoe3yEroWTsHM7wUCpa0aiyrRXuMNF5TbGw1RnAxvYzt20epUbjmq0QtMP/ugbEv+oHz/6bQn/+/+qX69oSmysrtfBfhkk6rE/2f0kilAQAAAAAAKcohm8PFgtusMM8Z7C2SE9vikgFk1WR6arYjbMdgaQk1WlLY0RSqS7J9FhBxa8hEUhKUvvSWCApFa2YrhJF9KIzWGycrd/siEql0zW9wt5WMUqFklpfc17DIj2dLITts1v0aEODGpJ9PXaL+QPJfX2EQpKiRxKB5Hlzb9TCf5Fe+d/DkvJduwMAAAAAAJxqCCUHibLLSiV1qN0R5kmSVu9Sq6TCkVlYtTvS0a8rbJddVip1v6k95jXE1ajs4pDU3SFH/0FJUvvWN9WlkIbGhnQ3HlCXpJJZLZrTXyGqyy91Z2WlKpN9Lfyl+QMBnat/WzJPMwre0WOLG/QnsxgAAAAAAOAURCg5mPiEdTGFw0abm9IqW9OiZU2Or1TzUfZZjYqGSTp8IH1PxhT7JMLXRXq6fKV2dlvBpHUNexM9KU8Il+qbK/9N5x34/+qxx143CwEAAAAAAE5ZhJIniK7D+8xNKVkLyUS1szas5eX2V+32fuwpWaf2w5KGjVKRWZSBroPO+TbrtGWms+4hTVzUX8FkFodv/+GQopKK/uVy6X+fcs0red6QfEnHXLsDAAAAAACcagglc2afOruT93jc81pEKrhEZWbgtmCCShRVZKt7cZy2w1GpYLjOdW2NqdUlpZIiW1xzO/Y3q04+1xBXpz1vR6XSCSozSoqmXaJCRfRmskV2GmfrMTuYjA/xtrUf7JA0XEVJzxtENodv/49a2yT1vK8dDc7t52rsqC9IbQecGwEAAAAAAE45hJI5Y/ckdC7m4rR6o3Z2hzRxwXpHT8NazZlV6hsuWkFcqa5Y4TfXpBWAusK/BY39PHxbal+6Ra0KaeKiRlfoWLSiMX7N1j6lumZNbWKHivX65qSQunZsTCzys6BRC41rs4LLqDojrs32XJkhTZzlOOYA+9PL7+vjvPP1b3MTsfE/L/w3jck7rFcYyg0AAAAAAE5xpxUXF39mbkwmHA7r6NGj6u7uNosG1IwZM9Tc3KzOzk6zaJCp0fTNizWxILGla8dKPbY01gsyXblb0Yq9qpkUSmzo3q66+OrUtZrTdKNKnGWrpW8umqyuTWE9vdpnH5eIXix3rgQeVJBr8J63NV6nBM/1parTgkYtm+XsQpli3xy46KKLpLKpuuWb5+uL8a2H9Yq92M1t863A9e67vuv4KQAAAAAAgFMDoSTQDy666CJzkwuhJAAAAAAAOJUxfBsAAAAAAABAThFKAgAAAAAAAMgphm8jBe/cj75cc1lCDN8GAAAAAABIiVAS6AeEkgAAAAAAAMn1KpT89NNPzaIBdfXVV+uPf/yjjh49ahYBA+L88883N7ncWnOLJGnxfUvMIgAAAAAAgJMec0oCAAAAAAAAyKmMe0q2tbXp+PHjZtGAYvg2AAAAAAAAcOKgpyQAAAAAAACAnCKUBAAAAAAAAJBThJIAAAAAAAAAcopQEgAAAAAAAEBOEUoCAAAAAAAAyClCSQAAAAAAAAA5RSgJAAAAAAAAIKcIJQEAAAAAAADkFKEkAAAAAAAAgJwilAQAAAAAAACQU4SSAAAAAAAAAHKKUBIAAAAAAABAThFKAgAAAAAAAMgpQkkAAAAAAAAAOUUoCQAAAAAAACCnCCUBAAAAAAAA5BShJAAAAAAAAICcIpQEAAAAAAAAkFOEkgAAAAAAAAByilASAAAAAAAAQE4RSgIAAAAAAADIKUJJAAAAAAAAADlFKAkAAAAAAAAgpwglAQAAAAAAAOQUoSQAAAAAAACAnCKUBAAAAAAAAJBThJIAAAAAAAAAcopQEgGFNGHxVzTtqjPMglNS/lUXq3JxsYrMAgAAAAAAAKRFKJkzVqg34TL728uKVXn7COUbe6VTdNNXVLnY/LpYpeeae55KrLZ1tgnhKQAAAAAAwOBFKJlTx9R9yPpX/vA8szC47v3auvKParC/tu6ULvzWKRrEXVasysVfVlHLn+Pt0bDyj9qlolM8qAUAAAAAABi8TisuLv7M3JhMOBxWW1ubjh8/bhYNqBkzZqi5uVmdnZ1m0eBx7ghN+9aZenflfrXbPR4n6M9q+HXU3DOlopu+ognn7NfWJw7pmLk9fEzvPvm2Im32xnNHaNq3ih29MQ9pl31+tzNUevt4XVgQ+z5xnPyrLta0icn7cx7buVdbf/tJYkPac4Y0YfGXlb9zr7Z2FKny30fES9r/+4/a9Vr82wCsYxW1BGtHq40S33vqrnT1t8/n2N3NvFYAAAAAAAD4IZTsb56Qy8s3HEsiWSgZO4/sY8XCRGfQlzK47HYe8wyV3lSo9l87z+EIE5PUNdg5ncFeIsSzflbuuqVzWbEq/31EgDDTPqfzGmPX7Qw0jTaMb/v637TVCD2t+vYQQgIAAAAAAPQCw7f7W9sha6j1fx9yDLveq3e7rTCyYeUfk4Z8vZE/5AxJIV04MV/Hdu51hXXtv/6z2pWvC78eim8r+roZSErSJ4q4Askggp9Tig1BTwR6x944omPKV0Gi42RaRReNkHRIB1MGklL+VeepSIe0y3mNbYe0a+cxKXxeYpj3iDOVr2M6+IbjfrQd8gSSAAAAAAAA6BtCyRxxzyF5hgoKpGMd2Qsj1fa3ROB22dkqkt/xozrYIumcL9g9N0MaGZaO/aUrwwDSR+Bz2o466qtEeJu6x2NvnKGiC/Kl7uOea/QEoYeO65jydeG3TvWFgwAAAAAAAPoXoWQumUFcNp1rhH6ORXU8Cs609rV/xhsk9laAcw6UFG2fP9xeIKjtkLautHt2fiu2kndxijkkAQAAAAAA0BuEkv2s6CYr3Jo2MV8Kf9kOuqw5FYv+PYuh1wgr9Gt/J8BQ41ivQbt3ZTyU608+PRX76tiRY5JGaORlZklm3KFsVLtiq3j/9yFJIzQhW/cIAAAAAAAAEqFk/2v/tXcOSSvsOmSHX9lYKOUMlf6LY37F1z5Uu/I1cpwZNprDtT9Rd7eUf0FhgF6M9r5DzGPaAp8ze6zh11LRRcZ8lS6fqP0vx6SwNbzcKX/cEOWnmpPytf32vcpTvjGc+1hHj+92AAAAAAAApEcomUOuHnlZ6zl4hkpvH68LC6T2/44FnFG9u/OY8ieOds2NWHTTl1WkQ3o3vrDOJ4r87yGpoFjTbnIGe2eo9KYRRlD5iY4dlXthGJeg58yi+GI1X1alq/5S/lXF8Xoc++0HatcITXDuc+4ITZiYr2M72+OhcP5VF2uC0evSWkynR8fMFcFj80+aC/gAAAAAAAAgrdOKi4s/MzcmEw6H1dbWpuPHj5tFA2rGjBlqbm5WZ2enWTRIhDRh8Zel/7YWcsm/6mJNu+CIseJ1MEU3fUUTwsbGlj+rwWeF6PyrLraGjcd4Vtm2nTtC075V7Aghj+ndJ99WxAziHAFozLGde12rh6c/p9UWRUnq3Cue+nvrFT+vY0u7fT+cPO3rqb/DZcWq/HfncuGHtCsrPV8BAAAAAABOboSSAAAAAAAAAHKK4dsAAAAAAAAAcopQEgAAAAAAAEBOEUoCAAAAAAAAyClCSQAAAAAAAAA5RSgJAAAAAAAAIKcIJQEAAAAAAADkFKEkAAAAAAAAgJwilAQAAAAAAACQU4SSAAAAAAAAAHKKUBIAAAAAAABAThFKDpSK9VrY1KI5C8wC4ORVtqZFy5patHBFjVnUT2o0fbN1Tl5rQU3RkifrVV9fr1XzzDKkZ7ffqmqzAIPdvFWqr7ee/fr6wXgPB/lr02y/+lUabC0IAACAwYVQ8mRG8OlStqZFyzavV5FZgBMPz/YJYcp96wZpMFGtVfX1WnffFLPgBHGi13+QeuoeVVVVqarqEe2OmoVu1avqVf/kEmXjDgze10kG5q1S/bVh9ex8xG7DKlVV3aO15n4AAACAA6EkgJzZMz+s5eVhPba0zizqJ3XaMtM659OrzTL4a9YD37JChXueMssADJzB+9qsviQsqUVNP2o2iwAAAICkCCUBAADQN9EP9b65DQAAAEjhtOLi4s/MjcmEw2G1tbXp+PHjZtGAmjFjhpqbm9XZ2WkWDSK1mtN0o0qMra2b3D24ilbsVc2kUGJDZIOWz1+U+D7OPF5EL5ZXaI89TPmaUtfOLhmfc0Gjls0arp2149U+y3nsxDkzl7z+yfeJamfteG1pdO2Uuv4V67Vw0WQVJkrdurerbuZstZvbc6RsTYuu0QYt3zTKVU/3PbLaoXDHSj128AYtm5W4uea9tOZQXKyJBbHve9FmLuY9cN8n6zgderF8o4qc5zXa1XwmvfW2j3Xxm6qbeUAVjnN27VgZ71lpHseUOG6wdrCY12jua5VrU1iNI53t5vfMBmQPdUxo0fOuoY7VWlV/nfRClZ47d53umpjnu9+U+9bprjHv6pFvfaDr669T7Ig9Ox/RXLPH0rQlWnfn5YodyTyWNV/dXbo8/lj0aPejc/XA1vgO1l5pz2nV3Xl1brHzWue78L1H1DTkLl0Xto/Rdr3dNub5zeOa9U/fZlPuc2738m23AKpX1es684JbnlfVPY7Bq2nbPyb5fci4/mnPabXZcFe723u+0NveeMnr72S2mVn36lX1uk7Pq+qF81zX4FcvT7sYbW+VdyS/ds89t6/hSLp7aIju1iPfekDxo3n2d7aF+TybnPcqWJtKfuf0v+epXie9Ub2qXtcNMa7fYN4n855bMrhWAAAAnPAIJXPBDsbkCFdi27o8IYoz6LDDEjM4W9BoBVOuIKlWc9ZITzuDJc85TAHPGTufnOGV/bPqRagXpP72Ps5AKhakOQMta5tcIVLRir2qODjec81la1p0zbBe1LcfJUK2RBDmvSZnaJa4V0n3c7Srd5/k2zxtFuA+OcPNxL3y1iMuxTPpPFb8Htt18ISYKY7j4QjVPaFkoOfM0f7ZeP6nLdG6az/Q3HjYEfsQ7gwFHIFFPOiw91Pig7/zQ348rLEDT2d4E9vPuc0KhZJ84J+3SvXXDvctS5zT8bM+50zsa4ZB8VIrlFSP9F6d6lSju8ZIPaEONVW9oXHOwMgOWuQIMaz6J2mzeCjlbTNLqkAqE37H9wZagds/Fii5wq0pWrJqqrbdk1n9g53TGYyZ4a18739Kgepvn9O5T+znHGFiIrRMXa9k265vm2s8/+ZzmKoNvffQlD6Eq9aqJ8/Tc45yb/tb/OuXRIDXZuB7nvZ1kpoZMpqcoaPn9erzmo7XzfEc+N1fAAAAnDwYvp0DZbMmq7B7u36Tah69BTdoYkFUO2udPa8W6elNEalgsiriC3rUaHqFGRTZ+5oBUDqBz2np2rHScc467Xk7KhUM17nu3dIIUv/EPs65B9uXPq6d3VJJRWKxmnOHhaTuN7XHETa1L/UGkllT86gaGhqSfj3aq0Wl3T3z2pduUatCKp1mHKx7u+ocPfPat76pLoU01M6Li1ZMV4kietHRrlabhTRxVm18W7A2C3KfElo3OeeJXKQ3I5KGjerVokKuAHL1RuueX5aof/YEf84ku/37/PxL2vqAI5CUNU/c1hZJYY0zV9R1hTv2fqELNXWaezdXGPjUc9odlcKXxJbNqNb1E/PUs/MRV2C49p7n1aI8XX5t75bXaHnBERI89YZaJA0/N/NlP/JCHYl56EJ56nghEczkDTlfklR9rRV01TnCI6v+YZWbi71Ed+uRePs2a9t7PVLobFlHyrJ51+vyUI92P5UqyAne/rHrdAdDzXrAFUgGEfyckt1mjkCsefu76lGezk7ejc9XkPpPua9cYbXoeec+Wx9Q3c4eKVyuJa5nu0e7H01dr/OH5EnRd7XNEVg1/ygRSA6ctbrHCPjWvrBbPcrThZMzf52k14t73sfXSfOP5sYXtXm+JfYcxRa5qUqEjdOWqDwstThe27F7njfx+vgCP/Fnw/H+2PyjOu2O+tQfAAAAJwVCyX5Xq0tKpa63/5CyN1XZZaWSOtRu9uRavUutkgpH2gFVxddVWiC1vuYNhjIV+Jy2roPuULV96Xgtz3T4apD62/t0Hd5nFHiDoLbDUalgsmpytap23Z2qrKxM+nVnitw5KSMglPaps1sqHDbauVE6fMD9DDXO1mPxBVxqVHZxSIrsMu5HndoPuwPCQG0W5D7FRdUZcW/ZMz+s5Zn2IJQkRfSmKxz11j9rMnjOpPSv4T5p+VA95jZJPe9tc4dRLR96QhmpRW+4AphmfXBE0pDzrJWB541TWFJHmxlrrdUbLY79MmKesw9a3nD0DuvRhy2uUknVGhf2aQu9rw+jieAyxrtf/6m+JOwJxDwCt3+y6+yFwOe0HfnAfc6tD2huxoupBKn/FE0dk+c796Bf4Ji2bSW9f6RHCl2uu7K0Ena/2vqBOsxt2ZLhPU99n7JryuQLlefzntHc1iFpuM6bpsSz4Xo/kPf9DAAAACcVQsnBpLtDbeY2WzygKh2uQp8QqNeCnDObMqi/GYImDFdRhfWv9qXjtdzu2VnT1KJlTS1atqY/etUNdqM1tEBS6Y1WGzi+zDkYA7VZBvfpRBfkOcu26lX1qq93fKWapy4r/MI+W4a9o3Ju2nkaLilv4l3uNqt3zjs32AVof/s6vaFSbwU4ZzZlUn8zBHXItLdt84/mquqFFiuYjD0bqwZHr7op960zntlUc0hmQ47veUDnD8mTFNZ1rraoN+bVPV9nhySFrzPazGe+VgAAAJw0CCVPEPHeXJEO15Dd/uTtQZYFWam/0btzdYWWl4e1vDysFyN2MGeGbNnSL8O3s8HqXanIhnhbuL7MXovp2iwr9+lE59OLOAsSc7wlhjlWPbrbt6dkTvj0WhtU7N5lPTsfSbSX8yvJnH8njFj729eZaSjXK/1xz7NU/0Chpumpe9zDiMPXDXgw6ZzfMfG8Pq9kmWG/6497HtD7R3rsuUF9Xr9VsWkgrJ7PanneZ58qVWUw1yUAAABOHISS/c5/KG7ZLPeK0Htei0gFl6jM7Jm1YIJKFFVkq92bq/GAuhRwjj17X3MYdkzgc2ZTkPo3/kER33kEkw1RTtgz3w7ZfIb7WsOWezEHoFN/DN82ZTR0Oqb3w5x92yzIfcqJJNMfpHm2A+nDc5baFC150urhs8qcI9Ie4qqWpl4t2pBsGKSbMYz2qTfU4juPXZDhtn3jHp7ZW/7DtPsmg2POW2X12PIZHmwNHTZ6oM273t2DM3D723UaM9VzHq809Q98zgxNW6J19fWqr18VnwcwIUj97bkLw+M8Px/s2U5v7T12MJluuK893Lm3fO99XGyY+m49F+B6svI66a97ngXBro9h2gAAAKciQsl+Z89PVzpd0+3wr2jFXl0zLKou526rN1oLkixwzvNXqzmzSqXIFseqwYvUuCMqld6ohSucgUyt5nh6B9qB6KQbVGaUSJmcM5uC1L9OWxojUumNmuNYbKdoxR3WwjybHAvibG40rs0KsTzzL0pqP9ghqVRXuM472NRo+gJrYaTGDBfr2bNpu7oKJqvG8xw4BW2zIPep/5WtuVEliuhlzyJRaZ7tQII+ZxmaNlUX2qFUYrGZGLs3kDOUmbcq2PDtaUtUMzFPPTufS7lCb/Wq6xRWS2LxGK3Vczt7lDexxrWIiHe/fmDPgdm3RSrsBX7C12mduahNr9kBiGdhFa/qS+zoymeBIWseRMdiO9OWaN21w9UTde4VtP1jCxldrrtcvfymaMkqMxBNV/+g58yMFRzKf1GmgPVv/lGTWhTWdc59Aj7bXlO05EkzILWDf8cQcSsUc9TZXi2+L2LH9Cy0ZJVa98f5zExbonXJhm9n5XXSP/c8K556zlqs5k7zXrmtfWG3ejzPDwAAAE5mpxUXF39mbkwmHA6rra1Nx48fN4sG1IwZM9Tc3KzOzk6zaNAoW+OY2y+yQcvnS3OabpScKw2rRtM3L9bEgsTPde1Y6VoZOG5Bo5bNco6tjehF30VnajWn6UaVOLa4VjcOck77XO6f66Mg9Q+yj8/1eervULRir2omOboxdW9XnTm0OYdcz0WMZ8Vr+xo92/1420Oee+7dJ2mbpbkHVnvKtXq4l/d8CYnjee6N0t0f73Hj11mxXgsXuXsjx5nHTHONsfMUGm1k1bfD55mcoiVPWvMdulbFjqvWKmc4Ed2tR56Sau68XB3x/Y19bObxYkNEXTyrH1s8+5r7TVuidcnCUce+1nE69LxjteZYfYfvfCSx4m6MJwBqsX/Wbqcjz6vqnrX2caXdj87VA1vt62+xyqRk9eux91fSOvjXV677FNOTqv5me5nlUvzatKpe18lR9yDtH+O5Tuc1OqWvf/pz+rRzKvG6xe6hj0D19z7f5rNdvape1w3xf0YTrxP5HstsB3naokXPVz2n8568Sxe+l9jXmlrB9WNxZv3kOabZvub9adHzVW9onM8zKpnPkRyvE782dTDuaeo6qRevk2B875fBt309z573fipJ+wMAAODERygJDKCyNS26Zliq4O3UkTzkOxX5BwemvgYJAAAAAAAMFIZvAwAAAAAAAMgpQkkAAAAAAAAAOUUoib6rWK+FTS1alu4rhwukAACATFVrVX29teJ8qi+f1egBAACATDGnJAAAAAAAAICcoqckAAAAAAAAgJwilAQAAAAAAACQU4SSAAAAAAAAAHKKUBIAAAAAAABAThFKAgAAAAAAAMgpQkkAAAAAAAAAOUUoeYorW9OiZU2JrzkLzD2Qcwsataxpr6ZXmAUAAAAAAAAnB0LJnKnVnKYWLVxRYxb0StmaFi3bvF5FZkGG9swPa3l5WMtrt6vLLDxBFK3Yq2VNjSozC5AUbeaU3dcmAAAAAABIj1ASAAAAAAAAQE4RSgIAAAAAAADIqdOKi4s/MzcmEw6H1dbWpuPHj5tFA2rGjBlqbm5WZ2enWTTgilbsVc2kkLk5rmvHSj22tC7+vWf/yAYtn7/I+nfFei1cNFmFiVK37u2qmzlb7bHvFzRq2axSxw4RvVheoT2OLXH2sbs2hfX0arMwM+Y1mNcoe/j5NY6q+e1jDau9USXx76PaWTteWxr9ykwprjWtW/Row0wVvfqwbvjhH8zC7PO9r85rtQRrM5/7Hn+GMm+zdOe07nWHXizfqKLNizWxwC4wn8VMJK2/g6fNvHVXmvqbz6nJvFYAAAAAAJA9hJI5YwVChUmDjhpN37xYEwuc4YodIvkEPGVrWnTNMO/2uIr1WjjrgB6Lhzl+x3fISigZO4c7UCta0aiyrRXuMNF5TbGAyRU+2fuZ2zaPUqNxzYlgzOe6eiWHoaQdwLU6231Bo5bNGu4NYNO2WSKEM483RxWu+5q+zYKd0xnsJUI8v3sXTJD6x87p3Mf6OfdzZ21zP+9la/aqaJM77E3/2gQAAAAAANnG8O3BYsENdpjnDIkW6elNEalgsioyXRW7cbYjkJSkOm1pjEgq1SWZHiuo+DW4Q5/2pbFAUipaMV0liuhFZ7DYOFu/2RGVSqcnVpyuGKVCSa2vOa9hkZ5OFsLmSs2jamhoSPr1aEZrpdRoekWpFNmQMggO3mbrdYUZ6EnSancgGUTgc9paN4Udgd4ivRmRNGxUZgsxBap/rSomhdS1Y6Vrnz3zN6hVIU2cVWtvqVHRMEmRXa7Qdc98M5AEAAAAAAADgVBykCi7rFRSh9rNwGT1LrVKKhyZUdrlL9LRrytsl11WKnW/qT3mNcTVqOzikNTdoTajpH3rm+pSSENjQ20bD6hLUsmsFs3prxC1N+ruVGVlZdKvOzPpaFfxdZUWmMGrKXibFU27RIWK6M0MA0iv4Oe0RNUZcX5vr+qeYYAcqP4LJqhEUtdBs6HNILRO7Yclld6oZWtiQSUAAAAAABgsCCUHE58QKKZw2GhzU1pla1q0rMnx5Zm3MJvsnmmHD6QPolLskwhfF+np8pXa2W0Fk9Y17PX00MuWr/9go6PH40yNlpT31e85tj2qW8wfyqUAbXbuMP8gsdcCnDObgtffG4LGFQzXufY/98wPq25H1Aom7dfAwhXZrzcAAAAAAMgcoeQJouvwPnNTSok59sJaXm5/1W7vx56Sds+0TIfsGtw94Oq0Zaaz7iFNXNQ/weQffniDo8fjZu2T1PPqw45td+qXyvbw7eyItVnb4agrlOtP3p6KfZeV+huhZvvS8fbzbwXchZMWE0wCAAAAADAIEErmzD51difv8bjntYhUcInKzMBtwQSVKKrIVncIlDrAqdUlpZIiW3I6f55VJ59riKvTnrejUukElRklaYfuNs7WY3Yw6R46LLUf7JA0XEVJz5tF2Ry+bQ9Rd/c6tOeZjAveZlY7BJszNHWbBT9nNgWq/+pdalVIpdPMYNF65rve/kOS3p112jLTDiY9r8HUr00AAAAAAJB9hJI5E5vjzrtIiCRp9Ubt7A5p4oL1jp6GtZozq9Q3XIwFOFf49vqyQhZXqLSgsZ+Hb0vtS7dYi40sanSFWUUrGuPXbO1Tqmuc8/xVrNc3J4XUtWNjYlGSBY2eHm1WIOYzdDfSYfWijC9ycqKw5kEsnHRDvL3K1izWREVdPVoDt9nqjfZwd6M36YJG77ycados8DmzKVD9F6lxR1SFk+5w7VO25kaVKKKX44vt1GrOZudrKTGHp7fXcZrXJgAAAAAAyLrTiouLPzM3JhMOh9XW1qbjx4+bRQNqxowZam5uVmdnp1k0yNRo+ubFmliQ2NK1Y6Vj1eJ05W5FK/aqZlIosaF7u+rii4vUak7TjSpxlq2Wvrlosrriqxsb+7hE9GK5cyXwoIJcg/e8nhWX/a4vVZ0WNGrZLGcPwxT7pnWLHm2YqaJXH9YNP/yDWZhl7vbq2rFSj239uhYuukQR1yrmwdpM8aH7jg2RDVruWondlrbN0p/TukfyrLjeF0Hq73k2XM++rWK9FhpBvFn/hCDPLQAAAAAAyBZCSQAAAAAAAAA5xfBtAAAAAAAAADlFKAkAAAAAAAAgpxi+jRS8cwr68pvPD/Cb+zGJ5HM9AgAAAACAkxGhJAAAAAAAAICcYvg2AAAAAAAAgJwilAQAAAAAAACQU4SSAAAAAAAAAHKKUBIAAAAAAABAThFKAgAAAAAAAMgpQkkAAAAAAAAAOUUoCQAAAAAAACCnCCUBAAAAAAAA5BShJAAAAAAAAICcIpQEAAAAAAAAkFOEkgAAAAAAAAByilASAAAAAAAAQE4RSgIAAAAAAADIKUJJAAAAAAAAADlFKAkAAAAAAAAgpwglAQAAAAAAAOQUoSQAAAAAAACAnCKUBAAAAAAAAJBThJIAAAAAAAAAcopQEgAAAAAAAEBOEUoCAAAAAAAAyClCSQAAAAAAAAA5RSgJAAAAAAAAIKcIJQEAAAAAAADkFKEkAAAAAAAAgJwilAQAAAAAAACQU4SSAAAAAAAAAHKKUBIAAAAAAABAThFKAgAAAAAAAMgpQslTWkgTFn9F0646wywAAAAAAAAA+g2hJE54+VddrMrFxSoyC04yRTd9RZW3j1C+WQAAAAAAAHCCIZTMGatX4oTL7G8vK+51wFR001cGXQhnBYNfSfE1uOoLAAAAAACAgUMomVPH1H3I+lf+8Dyz8IR27Ldvq2HlH+2vP6td0rGdex3b9qvd/CEAAAAAAACckk4rLi7+zNyYTDgcVltbm44fP24WDagZM2aoublZnZ2dZtHgce4ITfvWmXrXDueKbvqKJujPavh11NwzraKbvqIJ4UPalS7ou6xYlf8+wrHB/JmQJiz+svJ37tUujda0ibF+m+Z+mUocd+tvPzELJbtnZeJ8VoDp3dc6TqKH5TG9++TbirT5lZm812C1W+J7/3MGdYZKbx+vCwti3zvrFmPW0W+f2LNR7Og166i7p8zQvV9bnzikY/ENAc8JAAAAAAAwgAgl+1u6UKkX4VigUPLcEZr29b9pazz0jIVozp+zw8PuY8rXETvcsveTGXZlInUo6am/3UZy7W+Hay3O4DakCbd/Qe8a9bICzp6U7eE5p6Simy5W/h96EdjF7qkrEDxDpTcVqv3X9vd2IOy8t7Egtv2//6hdr7mP5bp2z72zFN30FU04J9V9Cd5mAAAAAAAAA4nh2/2t7ZC2rvyjGv77kNWrbeUf1bByr97tTgxv9gvu+qztkBFqfaLI/x6SNEIjY/Na2hKBpGO/gmJdaOyXFeeO0IVhqf2/HQFi2yHt2nlM+ROLEj38zv2C8iW1v+O8hqh29SpcO0P550hq+dAVWrb/uheBpKSir5uBpKx2iwWSOkOl/zJCavmz694e++0+vdstFf2LYy7REWcqX8d08A3HM+C5dwFltc0AAAAAAAD6D6FkjrjnkDxDBQXSsY5+CCNTOXTcN5w69pcu93Z7v/zhZzi3ZkX+uCHK1yEdjPUUtB3r6JGUp/xz7Q1tf9MxSUX/7lgcqNc+0bGjksJfVuVNIbMwQyGNDPu0mdO5hRpZIB07Yt7fT9T+l2NSwZmJUPLQcR1Tvi781sUqjV17b2W1zQAAAAAAAPoPoWQuHbVCo1yxVul2fKUZRh5nh1v9IX9IvqQRmmCuzu2a+1JWDz+7R2nRv8f2631w1/7rP2rrzmNWMGmfc9pVvQhd7d6IQQLl5Ps4w9dD2rryz2pXvi78Vl9XKs9umwEAAAAAAPSXzxUWFt5vbkzm7LPP1rFjx/T3v//dLBpQF110kf7617/q448/NosGXNFNX9G060aq5EunS2cP1ZgpIzVmylDlS8q/YKTGTPm8PmruzigEzB83Ul86u0dtKX7OmkPxmN598jW9uuWg/tJ8UH+J/F1fKivUp385qLZ2STpDX5oyVKf/3yHt3/ePxA+fW6gxZYU69tpf7f0yleS4kvSlApV86UPtWvm29jTb9Yp/HdZR1wX9Q0f/5Kz7cH2prECfRdz7nT56mEq+9P9L2R6S9Om+w/Z5OvXZpUX60vlF+tIXOr11TOXY5zR0ylDld6f4ubPyVeJq5wSrrj3av8VZ10/UFmuDjz6vMReM0Jd8nov8cSP1pS90a/+fevSpY7tbsDYDAAAAAAAYSPSU7Gftv/bOIdnw34fsFZb/qIYUi7P0njXEWC0f9GrORGuI9TF1HzJL+s4zTDuotkPa+uR+HVO+CoxOlZkf8xNFnrDuSf6QTHtLfqLubin/gsLkvU7bunSwWyq6yBwqfoaKLsj3zG3p8tp++/nwXs+xI8bQ73RStBkAAAAAAMBAIpTMIddw3m7/+R2zwwrOFD47MQz4suJgw7fPHaEJE/N1bOe+XgWaab3Wrne783Xht9IMUb6s2DO8OmlYGpuX8etmCBgT0oTbHYvLKNW8j+kkFgKa5pqf8gyV3hQ7h71P+MuuuR3zrxqtCwuO6d0/JBaiyb/qYs/8j0UXjZDUo2NG+1vh6whdmGzYeSZtBgAAAAAAMIBOKy4u/szcmEw4HFZbW5uOHz9uFg2oGTNmqLm5WZ2dnWbRIBHShMVflv77j9r1mhVETbvAueJ1Zqyh2eZW2b0vYz0vrXPGg7/u/dq6WZrwrWIds+uhJMdqd5T3jnXu/J17k64s7ndetfxZDY5Vp/OvuljTJjqjROf1GS4rNualNPY9d4SmGaFsn67Tc7xjevdJYzXvdHWyedrCs7J3gqdNjH095UnOCQAAAAAAMJAIJQEAAAAAAADkFMO3AQAAAAAAAOQUoSQAAAAAAACAnCKUBAAAAAAAAJBThJIAAAAAAAAAcopQEgAAAAAAAEBOEUoCAAAAAAAAyClCSQAAAAAAAAA5RSgJAAAAAAAAIKcIJQEAAAAAAADkFKEkAAAAAAAAgJwilMyFivVa2NSiZbGvzetVZO4TlH2sOQvMAuAEclu3Wl/q1oPmdgAAAAAAcEoglMyFxtl6rDys5eVhvRgxCwde0Yq9WtbUqDKzoB+VreljOHtCqNWcphYtXFFjFpzaynv0+swuRV/J171mGQAAAAAAOCUQSgLIoU/0u+91KrSvSJfe/zmzEAAAAAAAnCIIJQHkTM39UZWqUBtuP8MsAgAAAAAAp5DTiouLPzM3JhMOh9XW1qbjx4+bRQNqxowZam5uVmdnp1k06JStadE1w7arbuZstZuFsfJSx4bIBi2fvyjxfcV6LVw0WV2bwnrzMse+3cmP6a9Wc5puVIm5OS6iF8srtCf+fY2mb16siQWx76PaWTteWxrjO1js+hXGNziO4ykzeK7BrGOScwZmHs+8Rr86+uxjD3mvmRRKbHDcJ0+ZoWvHSj22tM7cnFPlK36gxZPOSmyIvKTy+U2J7ytu1nOLytS+6Xuavzqx+dtrHtY3h+3RypnPqGnBHWqaJf2m9qimLypTvvbrN+Uv6Z82z9dXC3yOqU/0u5faNfyV8+glCQAAAADAKY6ekoNI0Yq9uuQ1a+7J5eVhLa/drq7SG7VsTa2xZ1SFFS26RhvsfTeotWCyajz7pbJIT9vnqdsRtcM3x7ldQVyt5jQt1sTDsfOFVbdDmrhor6ZXOA5pB3rasdJxDR26IlYvc27N7u2qc57TL5CMJM65vHyLhi7o5TyUCxq1zHO8XbrE0WZFK/ZqmR34xvZ5MVKqa5rc12mFjtLO2sR+dYenxxcfal863t6+Qa12CJk4Z3iQBJLSq7XfU3m59bXy8L9oTa8WTzpH0xecoy3lLymiYk3ffLPGvr1GK3d8JJVepG87d73tuEr1Rb3ZTCAJAAAAAMCpjlByEGlfOl5PO3qlqXG2Xo5IKp1gLEITUuFhZw/KRWrcEZVKp7tDwiwpWjFdJYroRUePzfalj2tnd0gTZzmC0NLhKlRUka2O0K1xth5z9vQMqmKUCiW1vub82UV6OqPeoDE1ml5R6u11qkV6Ov59rSomhdS1Y6XrHuyZv0Gtcl/nucNCUveb2uPosem5d1n09R9sVENDQ5Kvjbr/X82fSO2CYWdJ3RE1OerftPSHrh6RwZ0lvf2S/sv+Ll8RPbo0tprTOfonx/P44PguKfpF/d7ZeRIAAAAAAJySCCUHubbDUXOT5AnrpPaDHZJCGuoc+p0VNSq7OCRFdhlDmOvUfljSsFGJnouRDnUp5O1B2RuNB9QlqWRWS7wHYq9VfF2lBd42c1kwQSWSug6avRgX6c2I+zrbDkelgsmqydHq4X/44Q2qrKxM8nWD7v8f8ydS+8vhj6SCMi3efLPKzcKMfaS3tjqWlD98SP6Z4z80apikw5+X2cIAAAAAAODUQyg5qNRqTlOLljm+Us1N6BLpUJe5LStGa2iBpNIbXfVa1mTMfanY8Gy7Z+Gi2H6NRi/PoBbp6fKV2tltBZPWsXoZdto9ODsd2Zm/FPsUDNe59j/bl47X8k0RK5iMtUdGQ+cHVtPSH6p8034rmGx6WE1ND6tpTd/jSQAAAAAAgKAIJQcNew5FY55Fa77HAAIHb5nap85ueyEX5/yPvvNAyjVX5fJNEUmluqbXwWSdtsy0j1W7vfe9MO0enH3qRdrdoTbn96sr4m3wYsQObfspmMz28G1J0urH4/NJ/iYiqfRqgkkAAAAAAJAzhJKDhT18uLXRDPmCKbusVFKH2nuxMrU19Hu4inzDPp9h2kGtrrCDSe+xrSHQid6HaTXO1mN2MJlxuBgbCn5ZitBw9S61KqTSaTVGQa0uKZW63v5D0vuyZ74dTHrayAp0C4eNdm3NVLaHb5v+a74dTA4bkWY4d7nKMm37uM/pwGFJw/4us4UBAAAAAMCph1BysLCHXzuDs7I1AYdvL2jUNaVS6ybnitkZiM0F6Vy0xmHPpu3qCrC6d9GKvZ75H5OFpVYQWqorViSJqBY0aqFRVjTtkl72Bo0tBHSjccxazYlfk7VP4aQ7XD0xy9bcqBJF9HJ8xewaTd9s9vy0gksdPmAEl3ag208LEPVOqVZuvsO9KnYsbHTOB9l4SO2SSi+LxZTlWtN0tXqdSUq6d2+hFPpYV6ZOPgEAAAAAwCngtOLi4s/MjcmEw2G1tbXp+PHjZtGAmjFjhpqbm9XZ2WkWDQpFK/YmDRe7dqzUY7HAa0Gjls1KxD5dO1bqN7pDNZM69GJ5LHCs0fTNizWxIL6bpKh21o7Xll70kowzzi1FHOdUYni5Yw9Jat0Udq06XbbGmGuye7vqPEO8LZ52Mfb1lHvqlKG01+hzTt/6e9vCdR9dvPcr+b654g0Yj+1Yo+vjq2bbKm7Wc4vKlG9/G9n0PW0c+QMtvjiilTOfUdOCO9Q06xy9WvtDLW60jxl5SeXzm1S+4gdaPEl2WeyAn+h3L7Vr+Cvn6dL7P5c4DwAAAAAAOOUQSgLImZr7D2vJ16TtDw/Tzf7LdAMAAAAAgFMAw7cB5Ezd/SFF9LEmz+9hbkkAAAAAAE5hhJIAcugMfePhoYqGOrXkiU/MQgAAAAAAcIpg+PbJpmK9Fi6arEJzuymyQcvnLzK3njA8cz8mYc55iUHitm61zpQ2XF2ge80yAAAAAABw0iOUBAAAAAAAAJBTDN8GAAAAAAAAkFOEkgAAAAAAAAByilCyn4XDYZ155pnmZgAAAAAAAOCURSgJAAAAAAAAIKcIJQEAAAAAAADkFKEkAAAAAAAAgJw6rbi4+DNzYzLhcFhtbW06fvy4WTSgZsyYoebmZnV2dppFA26wtllM2ZoWXVOa+L51U1hPr3buEVzZmhZdM2y76mbOVrtZeKqZtkTr7rxcebHvo7v1yLceULN7r2DsY3W8UKV7njILgQE07Lv6xczx+mJ8w8d6bfMCPXTYtVfO8H7Wz+L3e78a1vxA681y9Frs2e3asVKPLa0zi/vFQJwzJX5vnhjmrVL9teHE9y3Pq+qetc49JEnVq+p1nXO3QPfiSj3wje/r4g8e0ow//z7A9j7I4P1sduVaVZ7n2PDBFt3c8P84NqSxoFHLZjl+OUU2aPn8Rc49AitasVc1kzr0YnmF9piFgCT96/3a+J//rLz3N6ty4S/N0v4xYqx+NftS5UVf109/8Za2meWnklhb6ICe+8nLcr/tjdKPv3uFRuxp0H/8PuoqyZpxV+jZigLtWt+gFYfcRVOvrNTdZSH19Of5gV6gp+Qpbs/8sJaXh7W8dru6zMIBV6s5TS1auKLGLOg/Feu1sKlFcxaYBRna+oDmVlWpqqpKz7eYhQNvyn3rVF+/StVmQT/K6jmnLdG6+nqtmmcW9J+s1n8gZLvNYh/oPtiim9dU218DF0iK9zOvbL2f4cRxIt9zfm96VK+qV/2TSzTFLBhIT92jqqoqVVU9ot0pPtOuvce6l1WP7laPWZjE/K98X185a59e8gSPv9eSt/cp/6Lva/WXjKJ+ZgWSH+u1zbHfc9WZBZKStLrC+t1UvlI7u83CgVe2pkXLNq9XkVnQj3J/zmqtqq/Xuvuy82oalK9NQ8/hfeYmABiUCCUBABn7lzEX6Iv6WK/9McMPZzhxHf6Jbl1TrZvT9CpC5mKBei57LA7EOYFk/vXLmzRrZI/++Ls7tMYslKT/u0M/eqdHpV/dpAfOMgt7IdD72f9bY8+T9MHWAf0PN2DQOxTVIUn6MOrtJTnuCj373Zs8X7+6MmTueXI49Jb+4ye/1gxPL8mBt63T+l+RQ50p/kcJGACEkgCAXjqsg3xQAwD0ya365kV5OvbOE1rykVmW8D9/fkJ//ChPX/nqD/WvZmE/+rhrv7kJGLz+58AgnHYmql3rf60ZP7G/Gg8or6xSz946VlPNXQGccphTsp8N1jbzqFivhYsmqyvZHGx2eWF8Q1Q7a8drS2Nil/gcbKulbzr2zXReN2u+nOT/e+aZ/yrgXD3mfHPO45hlpkyvwal6Vb2uG5Jibixzfia16PmqexSfockxN9YblzjmaMp4vq1qraq/Ts4zuRnntYer3TUxPsOXenY+ork/Ms5ozgPmOk7m50zFnKPKZM5ZFaj+njr2aPejc/XAVr8yU2b1dwpSN3Mf/7m7zDo66595mwX1L/+yWrdfcjjlXFzWPokZJ73zcP2/tXL+dA1/879069HpemZqcbykdVu1Fr/j2DUTJ/37Wa3mNN2okvj37vpn/f3MnDv0o7164pmf6H9dO1n3Utuq1XCO876nn6/NT9GKvaq5+E3VzTygCse1uturRtM3L9bEwxu0fNMo1z31tGts34LY9957Lvk9G5Ekc7eZ98DYb0Gjls0arp2149U+y3k/3PuZ98r33lSs18JFlyhiHqs7MeepeRyT87jmvr7nlHyu0dtmZWtadI287Z/8mMGk+73peV8z3xsH7PfmFC158i5dHn/Ju9+P41L93vSUGTzXYNYxyTkDMevv/7vJYu97xO/3kkOA+T3/9cubdN9F7dr0bJJekk5felyNXx2tyKvTteD/zMIAAr2fxTh+R/3vDrOwFxzvWZ73dYv5+jR/ByTmlNylS5K+Nwbgea8zON5fLMHeQz2/85z1z/icwaT6W8lTZvA836n+Js/gtWmdt8N4f7Beq8ONc3rqaL6fZewWPdowU0WvPqwbfvgHszD3ksxxGJvf8P3GX+s/33Dv98EVN+n6+J+EPnMzjrtCz1aMSny//2XNqD/g3EOSNK/KeRwlnUsxVpcY936OeSA7L3WdN153OeeStPnOr5k41s81xXFOn2tMWy+beV7JDoG9c0oCgxWhZD8brG3mkfJDfK3mbB6lRscfCtYfTT4fhIdF1VUgRezt1h8n8v3DJT3rA1Fhij+0vMe3P0QZf8RZ9TU/DO5V0SajXinboXdSfriatkTrrv1Ac+N/fMQ+EJh/BF0oRfOUF//j3/4Q0ss/XPz/WHKzPvSZ9bhccv4xlWyb65osQc4ZWIAPOYHq79uO1Vr15Hl6zrhf2at/7B67PzhOuW+Vpm6/x/7e5zmI1dX1gTR4/YO0WVoX/dAVHHrEQ8dJ+v7N39ZlZzkDKevDXYnrA6C9TXKFV1aYqd4vmpPydXyiv58l2WZck5SuHXpnduVaVRb4fYh33EvzOZDf/qk5P9jGAy47sE0EXs4PyY7759nP22betk60l5z3qGK9Fs46oMecAUIsODbvwRrp6dj3znA5vp9dX/l88E51r5wf5OPH8l6Tc1/f45hS7WvX3xl0xO6Jf8CZ+P3q27YZSvV7c8p963R929zE+1gsKHC+Dw7I703v8a2fkTsk9PtdlOT3Zqp2sHjPmfR3QADVq9bpvBccdbUDGk9wI2UxlLQWsflKtF4Vf/yFWejjVq2eUaXSg0H3T87//Sz2+8u1q0NfFnRLHUoWrdirioPjE6/H2GvffO+6WOoqCCVeu573vMzE/xPOfF+K877f+L3Ok21zXZMt/TmD8XuNed4jpPhrxQwEXTyvQ7+/xSzpXpv+7xfeOgSvfyZOjFAyFiy6Q0k78IuHjCEtvbVSE5QI+KygTo7jWUHf+UYwaQWS7rBvXlWlznvZWQ/7+CF3iDf1yis09e2X3ceXXOGhtx4J86pu0vVnpwglo1HlqdUu915j/BjO+tvho5zBpNmG8W0+7Q0MYgzfRgCL9LTxR8OeTdvVpZBKpxmLNjg+wEtS+9ItalVIE2fVuvfLilpVTAqpa8fjjg8+i/T0pohUOl3TK2LbalQ0TFJkl6u3y575vf/AlDVbHzA+hDTrga0tksIa51qQxPnBSpLW6rmdPVK4XEumOffLkmlLVB6WWl5w/DG19QHV7exR3sTrExP9h89Wnnr07nbHn2SeaxoAQes/7TwNl9TyprO+a3VPkj8ys2Le9Z5AUpKafxQLJJ37OP+YXat7XmiRQpfr+tizkev6v/OD+ET/T7z5sR0k+kz+f9F0XXbWx3pts7OH3P+jxdv2S2eNV+VFiUNKdk8VR2+6/33vL/pYX1ThUGO/rDjB388qRqlQUutrzg+03msaMB/t1RPx3rA79L/7P5bOKnT0tsuM60P26o3a2S2VXGa2f0Qvljvez1fvUqukwpHW/SxaMV0liuhFRwjQvvRx7ew27mXpcBUqqshWR2jcONsdSKpG0yvMQFLWPfAJGbp2rHTsV6c9b0elguE619gvENc5F6lxR1QqnaAyY7e+S1yjM0C32kwqqTAXp4hqZ23iP/zat76pLoU0NEXPzb5o/pHxYX3rA2pqkRQeZyxCk9vfm1PuK1dYLXre8fuv+Ud12h3N0+XXOmqWzd+bWf4dsPYeo4flU89pd1TKGzO1/xb0OOtKXXyWFPkgaMD4C712UFLon/ppCPcOPfRM7PfaFrVK+vjN/8rJgm7tS43wrnG2Xo7I+zp3BpJyvDd6XpvZEfQ99NxhIan7Te1x/G3tuaYsO39InhR9V9tcf0/1MtDzvA6T/U2ePVmtfxA1j6qhoSHp16M5XItv6tACSVF92OHe3rOnwREuRrVtX1QKnW2HgqN0fVlIPXuaHYHbAf1n4wGp+FItHRHbFtJ5Z0vav9/V+/CpejMYvdQTSErStt/HAkmH6Ov6qSPg3PZ2q3oU0tnDjf0CSASSkhTVilcPSKFLdf04e4cRY/WNYun9RkfvyUNv6ed7osoru1TW4xjS0q+Okva/nAgkgRMUoSR6p/GA/+q2xh8j0j51dksaNir7fygtmKAS8wOkJEU6jA9EdWo/LKn0Ri1bY36YHYRaPvRdqdL9oUNqbuuQlKezk48r67Upky9Unlr0hvFHkXXO4Tov9oGu5UP1KE+X37muXz7k9Vbg+m/9QB2SwtdmcVXqNKovCXv+ADVVXxKW1KEPzH2eekMtkoafa388HID6BzH7/GL/+SbfeVutkoafM8m9vfv/3L3o7AUIej18O1Mn0vuZXdeSWYNzheWP9+/IqEdkahG96fowa7+Xm+3f3aE25/dapKfjC7jUqOzikOc/pXyPZbf1xEV7Hf+pZaj4ukoLzFA4ua6D7vvZvnS8lvsOB0/PPGf7Qev9rChZXXvLvsYuz8qtSUJVz+sk994/4vdbM5e/N6do6pg8qeUNoxdlsz44ImnIeYlQL5u/N/v9d4Bd//501jnKV4+OpphL0vSXaI901jm6wCw4CbUd9g41TfreaL42syL4e2jb4ahUMFk1OVxV+/0jPVLoct3VXythJ/mbPFv6vf6mujtVWVmZ9OtO/4Ec2TfuCt3tCRct5iIs237fkFg0ZlyxzldUf37beF10fGgEhFF98KGk4iv0bJVjmLdh3phRUrRV28wA0o+5iI+9oE1vAsGefQfcx+qwnrMRQ60RIlMvLlGeDugN49jWQjUFOm+EpBGj9OWQ9P573mHrwImGUBKBFK3Yq2VNLY4v5zxTqdh/tPSDopHDJYU0cZGzXi1a5jNfzZ75YdXtiFrBpL3fwhU5/O/AFKpX1au+3vGVar4ap378Q+n8IXmSwrrOWa/6emOeHft/laueV4vydPmdsf1WGb1Vci9w/bVW91Q9ot1R60OdtV8WPigmNUXnDZF05IP0vViiH+p9c5stb4j1/8W5r38GPupSq7nN9sXCFEPAc+DEfj9bpKfLV1q9YmbF9ksRop3yRmtogf2fUq577jMHY+NsPVa+weoNG78Pje4eSnZvys6Ic+PJyQxUE/ohCM1ItVYZ7+2p5oxz6bffm+fr7JCk8HXu3zn1PnP6ZvX3ZpZ/B0xbonXp6o9+VKs5xvtUqjmJnfzDy2wI/h7avnS8lm+KWMFkbL9+7gzQ/KO5qrJHkdwVe25X9e7VpL78Td5L2a6/U3vbIBi6HRfShNmO1bcrCrRr/a+98yOmYfWuNI713Zv0rGdORemp+l/rp3uiVjDpu+K33ZvSDBsHQmz1ctv554SsXqHmquXOeTSBkwihJNJyziO1vDz2tSFp4OBmD50+nP2V4KxeIlHtrHXWK/FlDhexeqiEtdz+QF84afGAB5PWvIc92v1olaqq7K9Hdwf70GQPAfuwxSzoO6vXSYuej9XJ9WVOoL9W98TKXrCGuVzX6w9Y2ZFZ/Zv1wLecbZ+lHiy+fHrN9ELPEWdcmcv6Z8dArmR6cryf1WnLTLus1hp6nrJ33ynN7t0a2eBp0+XlYS33DHu3elkuLw9bH65VqmucwaTZc/WU1KH2AesZ6Zhb1/G+/sjOQL81+/H35vv6MGovUOH5nVOlKs9w6mz+3szS7wDn3JyOuj+f9baCP3vexu7tqnO8R9XtCBbaWEOnzV7j2ZDhe+jqinjZi5EcjVJ66h738xq+rlfBXp/+Ju+LLNU/kAEbvm2svv2T3s13aPUUNI+V+DJ7LVq9LK3z7YpKeWWVjmDS7k15dmjgVwAfEdIIRy/R949G7fkrvdfY27YDBjNCSaRhD9vo3q7G3swJk3QYWBDWH0KFw0abBZZefzis05aZdjBpHtseGhmbiyyV2P+mrruvt/FStcaFJbU09WqVzKRDfAPwDGM2pCtP6ql77A9Y3p8NfMx4T40UH9DsIWvxYcyGwOcybX1Ac+0Pdebwvl4f02AN1blQU1McZ+2bLf77zBunsDkXmVOK+qdrs2xa//9v7/6DozgPPP9/XHt1zgV2JGIDcmzVaGzFTmwwyKiSAwswp0wqrLD5CmnNEowhtdayKgeXg317MoatVJCJ9hY7LjspllW2/AMrPmyEyzYsqUx0NojAJQeW+WHiOGMkVvZJCMVIE+RTrjbl7x/dM9P9dM9oRj9GQrxfVapi+nnU3c/TLYE/fn6cPSf9+Zd053Sj4Cu3qkif6oMPRmMX0+GYhL/PIqv1rB1Mer43i99nl4cGzSqW+s68nUUo7J1imLEdYTuYdIwMjE+f96xrmXslc4u9U6dH45lH3lbUd+3OVNM4M7VQjz9n/b057KnG62YrJKn9oBnyZWbs/t4cwf9wSvP3pvX3RXwttQyk+ztgiH+3WMueDOidN4extuVI/OETXdIUfSHlxjJeXwpMkf7wiX5nFlzOauepSFJHxPwfJZmwfjcO93+YWdOuU039Hv7v0Lb1djDp873pr+mwbrs1ejDD6c0vPGoHe56fRet/HCRnmpiy+zd51j+bSv7+Sif1/WfjX/RQqqnYE2X69nB5pmlnKqb6n9jB5BcSW8hb4V+gSIsSa1GOD2u6dnJ9Tdc07VTs0ZXxKd8We51J4DJDKIkhxNepmaWSxEYLTdqQ0XTHGi2tXaD8/iN6NcVus+nF14J0blrjYC8AXlQ91AihBq0x17dJGS7YwcH8e4fYPMD+x4tGsgC8PbLCuTj/uu2ZTRVZt133mBu5ZCO+ppVz8X2n51+3Fud/KE0waO8QaP7HZcr/6BvqmjbrP4w0xMLi9j8unZvWOGV4/1q33fMfZ/H/MPOMpMnw/ofS+oMWe9qe+94WPrY9ObIlfv/rnP8IX6vtd4fc/2DO5v6H6rPR9JsDevcPn9fc8EbdmTj4V9q2KCh9dHDMNgkY2iT4fVYb8YzwLlg8K8WU4kx/n10eSnauVJGiOpxl/7ftOaK+vAWqGWK0TkH9Cc86nSVzi42RgfENZlYaz6FBa4Y4/6iqjWhZsV+AMRrPvFEHIlGpeKWrPwrqv6PSvJiO7clsPU2PxYt0i/3fTqFZw/wtZE+/dn7/2u0ZTt8e4783X3jzHQ0E7tDDQ4xwyubvTSsIDancJ0SUsv07IP2/W+Lrbd6yIF5ihchjPn37D2/pzB+k4hseMEtSeEBzr5cU+zf9T7Pochbt8fwPj5KdmU3fjv9udG5Ekw1rpH6xylLMHsrsd2iNlu41lrtIE5YOdc0462dD/v+jVgv1+HPmv/Ps99yzTI79Pw5SbnSV3b/Jh/rZjJcn/h1r72Tvls39ZyE+GvLZvzZLLn/n39Mvzkk3hiscm9r4KdSTD9zmHgFpr8E48El/4tCht07qrAKat7rM3jzGsmhJ2RDnH0Uzb9PfmOtrnjqp4zHvfbl16tQ5OTa+sXYXn6fY2I/uBUbZVcFg8DPzYCqhUEhdXV0aHBw0i8ZVZWWlWltb1dvbaxaNu4naZxZ7qoh5WLJ3M40vxl+jpXs3qTTxP5ai2ld+XLNaVir/6Lbk7py1EW2pNobqeHYozZZ5bWs3U+eOoPHpmC79R9TonFISbtIGY202166uLt5+8atrTfOQBo49rft/4P6nw8LHXkz5H0nu+vZUtHhh7B09/bxU89Ad6nmzyt59b6Eef+5h3eFqonf35qx5/oHUrjeq3P+xFm+jS7tzN1OfOrF39LRnqpotg2smppD5lbkYfSepPdFndg3z3uS9f++zSnPdTO4/I95n6n2PMqmT5f1n0GeZuvPOHXpw1gXtd+ya7TZff/etv9Vcx+iXT0//kx74pXOU5F9p2/qlKvroQHLn7mHz/twmTa7fZ946zvaZvP3i9/ssHetZf948LLmeqfUsZxjPeOj3xJ+3jd5+SPSnzON+vP0gn74o2Wmsk+a5ps3zfhjPwC43z+/mf08Wx/l8/v6ypvo7dhx38Z43eR/esiT/NqQsj/fXdP+/b127A0uu32l+v3e8v8uSXL/7jN/DA8eeVqNq9HBpj+N3n/f3Z27+3vT+jpXP71nP301p/t709ItR11PuuaekdP9ukc+52t+s0qlZzbrnmuQ1PffukGynfz9YvPf3X768R499pVt7XvuOdjqO+/rijxT5WoF+/YtqPZ7F5jhxmf0+i/P/vZYtz+8VB9fvCONnru/oNr2q76hmfk/63wepfk9lwfM713NO/98d7t9x3jrm33FOQ1/T8TOX8mfE+66ler/9fi9k/2/yJPPnxbxHd3m73qh6XTc897Bu+SDNNT33NAw1z2j//3eTdHavKjb8i1mae7PL7DUkh5h2PLtMr4ULdTbinYZtWrSkQt8tMf6NEDvp2NHaCvteMtaa9D93QJsfqNA853vRtt+x3mWhntxYphvPHXbsCu7le0825/nWVa3ScmNpdf/78q8r1324732gbb/uO1Ool1YX6f2h+huYQAglx9hE7TMAACYq6z9WHf8hfiVLGfIBk8UD2lFZpeKPmxX+9U/MQocleuLrf6evxoaqBwAALhdM3wYAAAAwTn6iV38zIF1fpR1fNMuS/suXH9RX/3xAv/4NgSQAAJMFoSQAAACAcfM/36/Wno+l4q/t0RN+m9588Ud67CtTFP3V8KZtAwCAiYnp22NsovbZeEi3pk5SunWy4M+7Ho2vlOvxYKTSrbGVNArrmWHC4PfZ2GL6tgPTt0dfYu3iIRhrEGOsWdOzb/3ov6vy/bcyOA4PvzUn/Yx4jWQAAEYHoeQYm6h9BgAAAAAAAIwXpm8DAAAAAAAAyClCSQAAAAAAAAA5RSg5xtrb25m6DQAAAAAAADgQSgIAAAAAAADIKUJJAAAAAAAAADlFKAkAAAAAAAAgpwglc+QffnxOHT/+o3kYAAAAAAAAuOIQSubIf9t7rWI3devk9/5kFgEAAAAAAABXFELJXGmZotv35ivwnz/SL/7GLAQAAAAAAACuHISSufTPedr9oVS8ol//YJYBAAAAAAAAVwhCyRz7b3uvVUx9Wso0bgAAAAAAAFyhCCVzreVzOh2TArcOqsYsAwAAAAAAAK4AhJI592d668znpcC/q9gsAgAAAAAAAK4AhJLjoPH//EdJ/0+F5WYJAAAAAAAAMPkRSgIAAAAAAADIKUJJAAAAAAAAADlFKDkOar74/yT9R3W2mCUAAAAAAADA5EcomXN/0pJbP5Vi/0FRswgAAAAAAAC4AhBK5lr5oGYFpOgvpqjRLAMAAAAAAACuAISSOfYPK3oViF2r3f9slgAAAAAAAABXBkLJXPqbfq28iVGSAAAAAAAAuLIRSuZK+YBOruhT7H/doK8zShIAAAAAAABXMELJHPmHFb0KfFig27/3Z2YRAAAAAAAAcEUhlMyR//ZgUEUPXm0eBgAAAAAAAK44hJIAAAAAAAAAcopQEgAAAAAAAEBOEUoCAAAAAAAAyClCSQAAAAAAAAA5RSgJAAAAAAAAIKcIJa9wJTvbtaUl+bWm1qyBMVUbcfX/lp0NZo2MFdSf0JaWiErMAgAAAAAAgAmGUDJnGrSmpV0b6mvMgmEp2dmuLXubVGAWZKltfUhby0Pa2nBEfWbhZeKyDuN2hK3+L9+mY/1m4fgbrfcsc6P7czJhhZu0gf8JAAAAAAC4ghFKAgAAAAAAAMgpQkkAAAAAAAAAOXVVMBj8zDyYSigUUldXlwYHB82icVVZWanW1lb19vaaReOuoP6EauYHzMMJfUe36dnNjYnPnvrR3dq6vs76c7hJG+oWKD9Z6tZ/RI0rVqs7/rk2oi3VxY4KUe0rD6vNcSTBPnffnpB27TALs2O2wWyj7GnByxy35lfHmsq7UkWJzzEda5ijAxG/MlOatg7pr/XM/hUq+NU/6t7vv20WjpEaLd27SaUXHM/brzwvecTsM6vfe7Sv/LhmOfrGrDekbN8zz7Pw73vzvXC+254yg6cNnnv0v2bGzJ8V58+dzXOPPnU0xLttlpk6RuHnDwAAAACAywGhZM5YwU2+Ga4kxEMnZ7hihz2eEMgON6Z7jyeEm7ShulPPJkITv/M7jEooGb+GMzyUCuojKjkYdoeJzjbFAyZXyGPXM4/tLVTEaHMyjPNp17BMvFCyZOcJFexJ9mk8RHMGXgX1J1Rzq9SXF0g+R7vecMOujN6zugWSJ3hzv2fWM5LxXpxQ+OM5xn0N9XPif03v+565eFDo6qPaiNYobH/2+9nxeY9TtN3z7DRaP28AAAAAAFy+mL49UdTea4d5zmCtTrv2RKW8BQpnuyFGZLUR0DTqQCQqqVizsj1XphJtcAcw3ZvjgaRUUL9URYpqnzPkiqzWq0djUvFSLQ3bx8KFypfU8a6zDXXalSocy5WaZ7R///6UX8+M0f4sbeuNUGvHKzrWL+Xfepd7ExpnIOmoVxQem81qSqoXKL//iF51BIht63erQ8Uqc2xWc930gNR/Wm2u98IMJDNUPEP5iil60BFaet73DIWbVGYGkrI2IEoGlJn+bNaoYLqk6HFXOO55dgAAAAAAgFByoiiZWyypR91meLHjuDok5V8/CmlXtGdMd9gumVvsCZ7calRya0Dq71GXUdJ98LT6FNC18amtkU71SSqqnmA7FDc+pIqKipRfD6UY3Df6GtV9wTwmSVGddgV9dr28GbrOeXhUNGhWsdR35m0jKP5Qvf1S/vSbEke6LsSkvAWqGY2dvKM96lNApXUnkiH2MBUsnqV8T5+5Zf6zafd18Upt2dlgVAYAAAAAAE6EkhOJT1gX5wx4MlWys11bWhxf6dYJHDF7lNiFzqFHMqapkwx46rSrfJs1yq863oaRh1Cp3PX3rzhGPK7QTZKmfO2/Oo49o782vymXwk3a4HyWLenXJnTquhAzD40OezRr/vxN7vesxb32pexRkVvtkYU18XrDDe4iq/Vs+W51KKDSuvg1Iyox62XAGsGZ+ucuIU0d589m2/qQGo/GrGDSbucGx4hRAAAAAABgIZS8TPRd+NA8lJa1tl1MxxpC2lpufzUcGcORkvYosemFIxoJ1/exc6hhow6scN776IyO8/P29+91jHjcqw8lDfzqHx3HHtK/aJymbzvX3Iw/y/KQ9kXNiv4yDt6yZY9m7Tu6zXVfiS9zOvWOsPveRzSisE674tfZYy1LsGwYwaQ1gnNko0jNn83uzXPsdlqhev78TQSTAAAAAAAYCCVzxjul1ant3aiUN0slZuBWO09F5vp5Q4Yp1rRaRQ/kdC0765582pDQqLYzMal4nic8GnIabWS1nrWDycQUb1v3xz2SZqgg5XVH0ThM37b6JqZje4axZmL8XUgzOjWd9O9Z+nc6nbb1djDpCbGHcc4dYTuYzP4dsN6d9OusZvuzmdSoAyvsYNJsjx3ojsqyDAAAAAAAXIYIJXMmvt6cYzMXpx2v6Fh/QKW1zjX3GrSmutg3XIyHKc7NRJKsYMcV/tVGxnj6ttS9+YA9pdY9Yq2gPpJos1WnWMucI+TCTfrL+QH1HX0luUFIbcQzuiwezvWaIwTjawxWD3fU3cRmPeuAihfH+6NGS/dmNn27ZOdKa2Mhc9RihtK/Z/bmScUrPc/KrUZL95qjGFOFpUP8nNi7dpvrjKZc93Eo8Y2Aqo0RuLWR5DUy/tls0BpzzczwXSrO846mTISv8+/1BPQAAAAAAFwJrgoGg5+ZB1MJhULq6urS4OCgWTSuKisr1draqt7eXrNogqnR0r3u9fb6jm7Ts4mdi4cqdyuoP6Ga+YHkgf4jakzsTt2gNS0rVeQs2yH9Zd0Cx+7MRh2XqPaVO3cbzlQmbfBe17P7sV/70t1TbURbqp0pXZq6Q/prPbN/hQp+9Y+69/tvm4Wjyppmbx61OPvE7IuOPSGdntuuZdMdzzw+zTtRy3wnhse8tuecfteVuQu795l734u4od8hT7+Z95Qlz/miu43p50Pfk+TfF37vtsXbJ6nrAgAAAAAwuRBKAgAAAAAAAMgppm8DAAAAAAAAyClCSQAAAAAAAAA5xfRtpOFd887XCNfzQ2541oZM4XJf19CzPqQvc81LAAAAAACQS4SSAAAAAAAAAHKK6dsAAAAAAAAAcopQEgAAAAAAAEBOEUoCAAAAAAAAyClCSQAAAAAAAAA5RSgJAAAAAAAAIKcIJQEAAAAAAADkFKEkAAAAAAAAgJwilAQAAAAAAACQU4SSAAAAAAAAAHKKUBIAAAAAAABAThFKAgAAAAAAAMgpQkkAAAAAAAAAOUUoCQAAAAAAACCnCCUBAAAAAAAA5BShJAAAAAAAAICcIpQEAAAAAAAAkFOEkgAAAAAAAAByilASAAAAAAAAQE4RSgIAAAAAAADIKUJJAAAAAAAAADlFKAkAAAAAAAAgpwglAQAAAAAAAOQUoSQAAAAAAACAnCKUBAAAAAAAAJBThJIAAAAAAAAAcopQEgAAAAAAAEBOEUoCAAAAAAAAyClCSQAAAAAAAAA5RSgJAAAAAAAAIKcIJQEAAAAAAADkFKEkPApWfVUVD87UVLPguplavOmrqtgUVIFZlrWrVfzgV1Wx6auaN9csAwAAAAAAwGRGKAlcJlKGxQAAAAAAAJeZP8vPz/+eeTCVadOm6dKlS/r3f/93s2hcfeUrX9G//du/6dNPPzWLJpCA5m2aoy/+4WN1dUuaG1RF1efU9b8H9P/MqmkUrPqqFt9zvQLx80j2qMN5mh82jw/P1NnX64v/qV/nzHu7NKBzrR/rd639uuQ8Pix/0if/+2P9rnXk9zs+rOd5x8LrdbP99cX/1KtzH/7JrDhqUj4XAAAAAACAywwjJXPqkvrPW3+aOmOKWZiVgq8Ekh+uy9f1ec5SjKm5QVVs+rIK2t/X/m2/TnwdV4GKrzMrAwAAAAAAwHRVMBj8zDyYSigUUldXlwYHB82icVVZWanW1lb19vaaRRPHdTO1+Nuf02+3nVO3PeJxnt7X/pdjZs00rlbxg3N0/e/O6VLp5/Sxfa6p37hV8/R7XSoNSv/6ax1/N14/oHmbvuxY//G8jtvf4zT1G7dqcakxKbj/nA7++Lw1IvK6mVr87WBy2rCzzId5vkvHTujgz/9of7LacEsiRL2k3z53RtGuRHUpfo4v/V4Hf/x/dYujDe5z2eYGVfEXM5Of2/37tWDVVzUvlPzse64h2X2a4hpuZv/7t9XTv87n5CkzDPEsAAAAAAAAJiJCybE2VKiUVTgWDyVP6LfXzNEtvz+hgz+/WvM2TdPH27o11S47+PM/Jq4rx7mtUM4dTKY89gX/sCtdWTJwdIdvU78RVMGpc94wbm5QFX8xxTeoSwabjnPZ4WO3I3i16slxDv/Q0L+dt2rq295rp+VzD77ses5nG2+T63t9npOum6nFd/1fHTRCz/R9DwAAAAAAcPlg+vZY6zqvg9t+rf3/et4a1bbt19q/7YR+22+Fkfu3/TrDQNKt+zfnNfVL+Zo6d5oK2i96Rj8W3BXU1P5zOu44d/fL76tbM3XLN662Dlw3U7eEpO5/9Y6eHJa5BZ5AUpIu/dwnkMxQ9786zvWu1c6pM+z7V0C3lE7VpWMfOs4f0/F/PS+FbnBMpb5aU78gyein7pezDCQlFXxlpqTz+jhdIKmrVXznTKn9fdezvfTzD/XbfqngTsdmNTM/p6m6pI9POd6BrvOeQBIAAAAAAGAyIZTMEfcaklcrL0+61JNtGOn4vne79Vtdo3l3zlT3b8wAK6DrQ9Kl3/UZI+r+qP5+aeo1Vqg3dfY1mjpkwJa5gq/MlPp/r+4sg77Uhri3udNUYAZ6knR+UJc0VXmJGd1/1KVPJIW+rIpVjrU4x4q9xuel35vP94/q/t0lKe9zyVDSvtdbvn0r61ECAAAAAIArBqFkLn3yf0dx2u0f1f07aarO6beO4G7qNVdL1/0nTZU0tXSOKjZ91fHlXMtxtNmjEUe1jelZQe9U3fJtZxu/qgqf6fLdL/9aB49dsoJJu97i+IjRMZI6dJ6iqfEAsuu8Dm57X92udgQd61ACAAAAAABMPoSSY6xglR2AlU51BGLW5icFfzGyAOrSz89ov9/6gl1WMBifHu75GpOpwfZoxC9YgWguXOoZsNec9GnjNu+aj5d+fsYus6bPTy2dk3Uween3lyTN1PVzzZJsDOiSazRpTMfj9/2v5yXN1LwRvBcAAAAAAAATHaHkGOt+2buGpBU8nbeDqCzWc7RHQA7NPU07FSvUc4zaU3KdyeG49PtLUt41KsjVNGTPNO1M/VHRH9vB5BB9ZLp06ve6JKngK2mmgXf16eN+vzpXq+BLUz1rW7q8e85+P4znkuhfx9RvAAAAAACAyxShZA65pvP2D3pHOI6Ic6TiHxX95Xkp9OX0IwHfvWhNG74rHp4FNO/bQal/eHd26ecf2dOQ3aP8pn4jODbrJXad12/bpYK/GGo9xoDmPejYXEbp1n0cQtd5HY9PAzfWp0y2M9n/8xwjKqd+4yZrI6C3kyNVp37jVlcdJTbTMUdTxkNkx0ZFAAAAAAAAl6mrgsHgZ+bBVEKhkLq6ujQ4OGgWjavKykq1traqt7fXLJogApq36cvSv1pTiqd+41Yt/tLvddBv6nU6183U4m8Hdck+j6lg1Vc17wvnkue167tH1hm7Y7vqWGXds933N/Ubt1rTz31cOnbC2D38ahU/6F670lXH955s/cl7t645oOOukaRWP041rul7f45zSf7X7U7RjxnxOZ+nL+YGVfEXzmGc5432WApWfVXznKNTzXt38LQ1TV0AAAAAAICJilASAAAAAAAAQE4xfRsAAAAAAABAThFKAgAAAAAAAMgpQkkAAAAAAAAAOUUoCQAAAAAAACCnCCUBAAAAAAAA5BShJAAAAAAAAICcIpQEAAAAAAAAkFOEkgAAAAAAAAByilASAAAAAAAAQE4RSgIAAAAAAADIKULJSaFGS/e2a8vOBrNAqo1oS0u7tuxtUoFZlq1wkza0tGtLS0QlZhkwIdk/Gy3tWlNrlo2V8bjmOFv8uF5sbtb2dWaBtHZ7s5qbm/XiYwvNouyt267m5mY1P/e4RuFsAAAAAIBxRCgJjJkGrWlp14b6GrMAl6GC+hME8ri8pAmLAQAAAGC8EUpOdjvC2loe0tYVq9VtlmUrslrPloe0tTysNrMMmJAadWBFSFvLQ9q1wywbK+NxzYnrhUerVFVVpft/0GoWZe/5R1VVVaWqbz+hUTgbAAAAAGAcEUoCAAAAAAAAyKmrgsHgZ+bBVEKhkLq6ujQ4OGgWjavKykq1traqt7fXLBp/4SZtqJulaMMBXVu3UkWK6VjDHHVXt2tZsaT+I2p0jmKsjWhLdXHy+6O7tXV9XfKzrWSn/f1OzroZnsdSo6V7N6k0L/7ZuscDEftjuEkb6hYoP15s3rOtZGe7lmm3tu4pdNXv2OMdMVZQf0I18wOJz31Ht+nZzY2uOtb055UqSnw27itr5vmi2meO+jTb6lfH5/6d/espM/i3NVesPtCekCLXO+/TbKdVL//oNj378b2ud8n7PDPoV79+SfVODvHuWufp0b7yV1TgfG9d7+UQ77StoP6Eam49rcYVnQo72pB8RmbbTM62ZnZNKZP3LNPnlIF129V8t/TGMxdV/tAdmqJ2vVH1um547mHdEZDU/oaqHn0hUX3hYy/q4dIpic8Dx572GeW4Vtub71HIONr+ZpUefd6usb1Z9zgqOMu8zPO1642qR5W4q3Xb1Xy382Tue7ZY59CbVXr9OmcbjHNJkhbq8Xj7JUkDeueZ+/XEQVcla/rzQ3co2Rt+58pcJn1r1knX1mSPuO/f7HtT+mcBAAAAALnBSMkcKa5dqt6GbTrWH1Bx7Qk7vItKebNUErbqFNSf0JbqGTrWYE393Fq+Wx3FK40NbKxNNJZNP6LG8ni9bTrW76gix7RtvzKncJM2tGxSqZzn+5FU7dgYJzFtO6R9Ufe3exSv1Ja6GTps1288GlNR9QkttdsoO7y0QiX7eg1HpPmbjLUX7TAoutu+p5C2lh/QtbXD3LCnNqItnvMd1yxH3xbUn9CWugXq2xMvD2lftFjLWtz3b4VicjynkBovLE1satK9eU7y+dkBV/KaoXEMJJOKqtutMC7xjhRrmc9mSPnzN2lLtRLPyvM8w03aYIeX7j5zr704VJ/Flexs15bqYnU4nsHWd+d56knFWtayScVn4tfdrY68BapJPM/kFOqte4Z4afMWqMYOAOP18+dvsq9Zp12OtluhoOPeXAFhZtfM9D1T/DlNP2DXS/2chjZD5eumqaXqDbUrpPLnanTLB0/r6WMDUmi21tq11m5v1sOlPXqjyppyXfXMO1Lpw+5NahY/rheb79GMY09bdex6A8kakmPatl+Zy7rtam6+R6H2N5Lnqzql2dvjd+WYtl31tN6JOb/ZK3R3sx6+psVRP6R7XBvjrNX25od1x++T13v6mHTHQy/q8cWOE9mBpFztvKhy531lbKEef65ZD5dK7zwTb2OVGrXccc14HUf/V72h9tA9xsY+diDp6q8WTVuXrGP2ffubyWtWVRFIAgAAAJgYCCVzIqD8CwcSI6by83q0LzHyK6BriyWpQeH5AfUd/ZFjZFWddu2JSsVLk2FF7b0qzYvp2A7vSMXhKKleoHzPyMdGHVg/3PPHdKwhGdR0HzytvkQbrRCrrFjq2OMIcyKr9erRmPLn35sMssKFypfU8a5zJF2ddvmM0BxajZaGiz0j7qQ67Up8jvf/NtcowLb1u9WhgEqrk+HlddMDUv9ptTlGwHVvnuMZDTpa7vr7V7R///4UX6/oe//F/I4MuJ55ow5E3AG5q54jeDOfZ/z9edURtFp9VqwyR8icUZ8l3g1jJOaOsG/fduxxBrx1Oh2VNL1wGIGdcc0dr+hYv1Q012c3+xHL/D2T7P5PvKONajsTk/Jm6Dp3rQxMkT54PTHCb4p+q8bECL0ZumGxFcKVh6T2Nx0jAQ8+ocZjA5pSujwZXN59h6bE3nF8/0gs1OOLQz6jAV/Qo57RgRmKvaOnE9/bqkMfDEiBabrRPrLwsXKF1K43HOdv/UGj3olN0R13OwLH0DRN0YB+e8TRzoNP6P7h3Ne65boj4B2N2fqDR5OfE3WcIzFf0KNvtkuBO7Q8vlnN4hs0Q1L7aaO/WGcTAAAAwGWGUDJHXOFaf4+6nIWSVDtPRYopetAYRRftcYdAc4s94c7wNWhWsdR35u1hBH0pDHFvBYtnKV9RnTZCpu6PeyTNUEE8FIt0qs8eKeYdJZel8F0qzjMDTkPtPBVJ6vvYHMXoDbu6LsSs0XXDGrGWvbe/f68qKipSfN2r7/1P8zuG5nnmxnuWcKHTXc8eNWsFaqnenw/V2y/lT78pcSSTPkv1bviLqdcYjNi2frgbOpnXbFT3heEHnGll8Z7J7zkNmxGu/f4jT4C1cMEtmqJ2nTJG0bV2WT+bNyyWpLWaHZIGPjjk+f5hWbxItwTMgG1k0t/bQi26eYrUfsqYgt2qj34v6ZobkiMS2y9qQFO8IyiHYe2skBT7rQ6Z08Md1s4KSerRR2ad50+pXdKM6+w7O/iReuwRoeyqDQAAAOByRig5QRRcP0NSQKV17drS4vhyrTs3yuzRiN6AZOxcNz1gT7012ulcQ1Cyp81aU8+LquP1vNNbM1I8Q/k+IZZXmjqO0Wndm+fYU+8XqCZ+/64p9lcI+/3Jn7/J/SxbnOsqWjLpM2s0pU9gP+lk9p7l2o3XTJEU0j3NzWp2fjnXchxt9mjEi+1mwVi5UdMCkkL3uNvY7LMG48EndH/VG2rXFN3xULze9sSI0cwt1A3X+AfBHrGLOmses025Jj7W8wU9ak9jD90dv6+RB6cAAAAAkGuEkhOENVIw5lpzz/nlN311xOzRiPnXO9dyHFtdF/zW5Yt/mZuCONboaziiPgVUWjeMYDLVKMBsmGFZYs1Oe51Nz9qfo2dMpm+PBvv9MdfMTHyZm9gM0WfWaMrxC+UmBPM9y6Gzvx+wN3Jxrz9offlsAjMa7NGI08xAcMyc1cWYvXmMp41VqvJMgX5Bj8bL3my3Q9tsg0mfUZjDMPB7Z1zZqie+7Vw3cnRGdAIAAABALhFKThQZBme+wU3tvZ6RaZmxp9neetfoT1NNwTNNO1OR1XrWDiaH6iOP+FTwdGsE7jiuDgVUvNgMaFNNUU5qW2+HbJ7pvt5pzMMxFtO3TdlNnY4bfvv8+sx6N4o1a6TT9UfM/5kP+911GsF7ltbix/XisEfyWdzTtFOxQr3kqD3L2rudO1RnIT4VedZw7zpbIwgIn3/UDiaH6iOvs78fkAK3aFGa73vhdLt/nXWzFTKn3zsdfEL328GkJ9y1+zcx9RsAAAAAJhBCyYkislqHo/LsVG2yNhpxbCISbtKG6hnqS7fDdkrxDU6cuxbL2hhmZ+q1/0Zkxys61h9QaZ17d2aP2oixG3c8OEsz9TWlOkWOxqTild4dvhPtturkz/+OsVP4ShUpqsOJDVVqtHSvee9WoORZfzG+NqFzo6KJKNykv5wfUN/RVxw7SWfCfn88/WrKsM/iG8yYPwO1kZGvK5oF7zO32f/jwLMZTVYyfc+yY60HKUkhzR7uOoPPv25t9vJQumDT3jgmVJ4YlbfwsRd1zzUD6XfYTukFvX5sQArd497hW2u1fVi7XA/thTff0UDgDj08xPkXPvaiZ83GlOs+DqH1By32NHB33y58bHtydGO8/x27aEtrtf3ukNTe4tgQZ7vRV/Hn7zcN3g6RHRsVAQAAAMBEcVUwGPzMPJhKKBRSV1eXBgcHzaJxVVlZqdbWVvX29ppF4y/cpA11C9S3J6RdO2q0dO8mlcre+bg2oi3Vxa6dfwvqT6hmfsB9DnN3bPv7LFHtKw9LO9u1TMndpUt2tmtZihGFnt2N7XtMrl0Z07GG5FRq33uy9R3dltgBuWRnu5ZNN+7V1f7k9/nen7E7tve6VluzC84cXP0m3/N5rmn2vWSFmS0rVeQ44uwHN/uZO0aypq6bC957l987Ea/n2bHch+f9kecd8rtuqn7wvBu+74WM8xt878nmeKae522Ue6R7hzK8pvyu67mm1V/5Rh9Z39fjeW+1+HG9+NAdmqJ2vVHl3L3ZCrGa755h7/y8Vtub71HI3u164WMv6uFSuXaFXrvdZ31FY3dsV532N1T1qLS9+R7pzSo9+rysMK35HpmnsaS6R2dtdx3fe7K1G9eccexp3e/YGdxqY49xTf/7S57L4rlu7B097ZninamFevy5h3WH47EPGPeaWZ14m5xjU336NMHbVrOdAAAAADAeCCWBK4p/2HWlShnyAQAAAACAMcX0bQAAAAAAAAA5RSgJAAAAAAAAIKeYvo3LkmdNvhS8ayVe6Zi+7cT0bQyXZ71JXwOu9ToBAAAAAEmEkgAAAAAAAAByiunbAAAAAAAAAHKKUBIAAAAAAABAThFKAgAAAAAAAMgpQkkAAAAAAAAAOUUoCQAAAAAAACCnCCWvcCU727WlJfm1ptasgctauEkbUjzX+LPfUF9jFmWvNmK9Q3ubVGCWAQAAAAAAGAglc6ZBa0YrAIoHSqMQALWtD2lreUhbG46ozyy8TBTUn9CWlohKzAJgokoTFgMAAAAAcCUglASuUPFA+tnNjWZR9naErXB7xWp1m2UAAAAAAAAGQkkAAAAAAAAAOXVVMBj8zDyYSigUUldXlwYHB82icVVZWanW1lb19vaaReOuoP6EauYHzMMJfUe3uUaqeepHd2vr+jrrz+EmbahboPxkqVv/ETU6R6rVRrSluthRIap95WG1OY4k2Ofu2xPSrh1mYXbMNphtlD39fJnj1vzqWFPeV6oo8TmmYw1zdCDiV2ZK09Yh/bWe2b9CBb/6R937/bfNwtFTG9GWamlfQ4/K6hYoX1HtK39FBXs3qTTPePYZ9muqfulwPFez751lXub5jH413zHjni3WObQnpMj1zjb4PaMaLY23XzKeuYPnZ8HvXFnIoB1m//vVkU//Op+TWWZK/ywAAAAAAJg8CCVzxgpm8n2DJDnCGGe4YgdCZtgYDzeme48nhJu0obpTzyZCE7/zO4xKKBm/hjtIKqiPqORg2B0mOtsUD5hcIY9dzzy2t1ARo81WWNTj365hyWUoOUN9/T06vOK4ZrWsVH5/TDrzI72q77jaZIVZjmdn95mc71OaY77PNV2ZHEGd+Qx2Srs8YZz97C/4BXWOYDNxLru+nO+w95lbz1buYDJVO13ve+biQaErEKyNaI3C9me/nx2f99jvOUkq2XlCBXuMYHWovgcAAAAAYJJj+vZEUXuvHeY5g7U67doTlfIWKJzthhiR1UZA06gDkaikYs3K9lyZSrTBHcB0b44HklJB/VIVKap9zmAxslqvHo1JxUu1NGwfCxcqX1LHu8421GlXqhA2V2qe0f79+1N+PZP1PkYB6cwriWeer9N6NRFaz1BB2Aqwyoqljj2Od8Pus/z59yY2+CmpXqD8/iOO7x+JGi0Nm4GkrGcwjOBPskfyJr63UW1nYlLeDF1nH0m8G47zd2/+kY71B1Ra3ZA4puIZyldM0YOOdnre9wwl+tYIB3fEA8lsfjZrVDBdUvS4KxxvW+8z0hMAAAAAgCscoeQEUTK3WFKPus3wYsdxdUjKvz7rtMsr2jOmO2yXzC2W+k+rzWxDQo1Kbg1I/T3qMkq6D55WnwK6Nj61NdKpPklF1RNsh+LGh1RRUZHy66Gs80AjXLvQ6QldCxbPUr6iOm2MqOv+uCcZXKpBs4qlvjNve75/WMJ3qTjPDIVHJv292e+GEehJjeq+IGl6YXKn+WiP+hRQad2JZIg9TKn61inzn037XotXastOR4gKAAAAAAA8CCUnEp+wLi5/+k3moSGV7GzXlhbHV7r1KEfMHiXmE6p5pKmTDHjqtKt8m471W8Gk1YaRh1Cp3PX3rzhGPK7QTZKmfO2/Oo49o782vylHrpsekFSsZc5n2dJurBc6yuzRiL1Rs2Cs3KRr8+xAz2inZw3GyGo9W75bHQqotC5eL5IYMZqN66b7h+Qeaeo4fzbb1ofUeDTmaseG+lH4HwoAAAAAAEwyhJKXib4LH5qH0rLWtovpWENIW8vtr4YjYzhS0mdE2zD0fewcatioAyuc9z46o+P8vP39ex0jHvfqQ0kDv/pHx7GH9C8ai+nbQ+u6ELM3cnE8y8TXGE0NtkcjJkaujrkP1dtvrznpaWNIWz3T9uu0K162x1qWYNkwgsmuC+4p5MNh/mx2b55j37cVqufP30QwCQAAAACAgVAyZ6zQJdWIx7Z3o1LeLJWYgVvtPBWZU3yHDFOsqbyKHhibwCoF65582pBgryNYPM8THg05jTayWs/awaQZlLmnMY+xUZ++PbTM2uf/fpVUD3N0bHz6/NxcTUMeQai9I2wHk0P1kZfVt+nXWc32ZzOpUQdW2MGk+XNv9++oLMsAAAAAAMBliFAyZ+LrzTk2c3Ha8Yq1oUdtkyOUadCa6mLfcDEeppT5jsCyR505w7/ayBhP35a6Nx+wp9S6R6wV1EcSbbbqFGuZc829cJP+cn5AfUeTG76oNuIZXWYFlz5TiuNrDDo3Q5lM4u+G0a9u8cA3+X4V1J/QsumxYY6OrVPEnobsfg4NWjNG6yW27TmivrwFqhni/AX1JzzrjKZc93EoO16xlwgwRuDWRpLXyPhns0Fr9jrrJNfmNEdTJkJkx0ZFAAAAAABcSa4KBoOfmQdTCYVC6urq0uDgoFk0riorK9Xa2qre3l6zaIKp0dK9m1SalzzSd3Sbnk3sljxUuVtB/QnVzA8kD/QfUWNimmuD1rSsVJGzbIf0l3UL1JfYadio4xLVvnLnbsOZyqQN3ut6dj/2a1+6e6qNGGsspqk7pL/WM/tXqOBX/6h7v/+2WTh6aiPaUj3D3q3c7hN7t2ur7XLtZG5NyTfOYeyO7aoT3a2t66U1LSul4T7zIfrV955syWdqXTPfeA+sNvYY1/S/P/P98FzX9e5nz3M+z67jmbzXVsC+wQj/zXtP8rY1dV0AAAAAACYXQkkAAAAAAAAAOcX0bQAAAAAAAAA5RSgJAAAAAAAAIKeYvo00vGve+Rrhen7AaPKsD+kr5lqvEwAAAAAA5BahJAAAAAAAAICcYvo2AAAAAAAAgJwilAQAAAAAAACQU4SSAAAAAAAAAHKKUBIAAAAAAABAThFKAgAAAAAAAMgpQkkAAAAAAAAAOUUoCQAAAAAAACCnCCUBAAAAAAAA5BShJAAAAAAAAICcIpQEAAAAAAAAkFOEkgAAAAAAAAByilASAAAAAAAAQE4RSgIAAAAAAADIKUJJAAAAAAAAADlFKAkAAAAAAAAgpwglAQAAAAAAAOQUoSQAAAAAAACAnCKUBAAAAAAAAJBThJIAAAAAAAAAcopQEgAAAAAAAEBOEUoCAAAAAAAAyClCSQAAAAAAAAA5RSgJAAAAAAAAIKcIJQEAAAAAAADkFKEkAAAAAAAAgJwilAQAAAAAAACQU4SSAAAAAAAAAHKKUBIAAAAAAABAThFKAgAAAAAAAMgpQkkAAAAAAAAAOUUoiXFV870L6vjZOXX87IJ+Wm6WAgAAAAAAYDIilLxMra54QT/91kbdaRZcTv6mX4//Z+nIPwZV9M3p+laLWQEAAAAAAACTEaEkxs0/zOmTPgwQRgIAAAAAAFxhCCUxTv6kwunmMQAAAAAAAFwJrgoGg5+ZB1MJhULq6urS4OCgWTSuKisr1draqt7eXrNoYvjK9/XTRdP17t5affzVF1RxQ7zgnPbv/Hs1eeoGk58/OqBv7f8f1p+nb9RPVszR55Olbn84oR//9Cn90p7eXZGX/Cwlv7/n0Fpt+o0kzdfffetvNbf/gL716y+6zv3p6X/SA788Kkm6884dejD4O/34p/9HFeuXqsinTvb+pJ++8pEWXChQ0YNXm4UAAAAAAACYxBgpmTOf19wVL6hCB/StnWv1rZ3/pHf/EFSFY13IO+/cYYeXa+06B9Rxw1L9tOKvrAoXntIDO62y/R/ZIaT9+Vs71+pbzgAyGzcs1U9XfEkfxK976Jw+P+tvte0rjjp/PkcPrl+svnR1AAAAAAAAgAwQSubQp6f/KTnqUUf1y3OfSn+eb488/CtVzPq8Pj39ov77hfh3/A9tOnROumGx/m5Mpzqf0/6dtcnr/uaMOiTN+MJ8V62OQ0PXAQAAAAAAAIZCKJlDPZ+4pzr/8pe1+lZ8+vZXblWRPtUHHxjToXv79Kk+r/xr3YdH1R/61OE68D+0aedaY2r2Ob33G8fHkSof1KyAFD3B1G0AAAAAAIArDaHkBHHnF6Ynpnj/dL3jK90akpej8gGd/Nk5dayXnv1mUF//Z7MCAAAAAAAAJjtCyQnil59ckPSpYz1J95e1Mc0k0DJFt38zqKKd0oafndMv/sasAAAAAAAAgMmOUHKiyHKadkefcz3KzNx585cmzqjLls/pdEwqnvNHswQAAAAAAACTHKHkRHHhKb31kVS0aEdGm9pYIyuDWnKn/0YzVmj5Jd1pn+vOO3fowVkTJpIEAAAAAADAFYxQcgJp2r9WPz4t77qS39qoO83Kv/l7/fj0p/r8rL/1rffLX9Zq/0fJNSofDP5OP955wNjQBgAAAAAAAMi9q4LB4GfmwVRCoZC6uro0ODhoFo2ryspKtba2qre31yzChPUn/fSVj7TgQoGKHmQHbgAAAAAAgCsJIyUxTv5MnRfMYwAAAAAAALgSEEpi3EQvfF66KaaflpslAAAAAAAAmMwIJTFuGr83XU/8L2nBfz2njp9dIJwEAAAAAAC4QhBKYlw1fm+6ir4ZVNE3p+tbLWYpAAAAAAAAJiNCSQAAAAAAAAA5RSgJAAAAAAAAIKcIJcdYKBTS5z73OfMwAAAAAAAAcMUilAQAAAAAAACQU4SSAAAAAAAAAHKKUBIAAAAAAABAThFKQpK0aEmFXtu4Si8tCZhF/mbeppc2rtKTs80CjL9CPblxlV7bWKZ1ZlEu1Ea0peWElobNAgAAAAAAAAuhJCYwK1zLOCid5NZVrdJrD9ymRWbBlSjcpA0t7VpTaxZciRq0pqVdG+przAIAAAAAACYsQklIkg719kuSzvfGzCJcdvp1MSYpdlFnzSIAAAAAAIAJgFASAAAAAAAAQE5dFQwGPzMPphIKhdTV1aXBwUGzaFxVVlaqtbVVvb29ZtG4m6h9lr1CPbmxTDcaR89GXtYjpxwHZt6ml1bfrimJA516/anDet5RxWKeL1lv0ZIKfbck9ZTtgbb9uu+t5IhOT/1zh1XZ3Jn8bF9rZtt+3dd7u14LFyZKPPefsYA2P1CheYnLxnS8ab/qzzvrmG30qzNEn3nKDLGT+uFP3tMh83gGFj72oh4unaL2N6v0qPcBZS7cpA11C5TvOhjTsYY5OhBJHimoP6Ga+Y7nFN2trevrkp/jaiPaUl2c/OyoV7KzXcscRaaOPSHt2pH8bNbvO7pNz25uTB6ojWhL9Qwda5ij7mpn3aj2lYfVlqyZhQataVmposRnn3N5+synzhB95ikzeNoKAAAAAMAEQig5xiZqn2XFDsbkDAPtY+cdoV48HHQGfeuqVml50AjjZpdZwaArPCzUk1XSI6nCREcImRQPBp3Bpx0EusI6Zzhohp/yDwrTiQeFrmsEtLmqUIea7c92G50Bql//pOzbspjuc/WF3ZfThh9Cui3U4889rDsCktrfUNWjL5gVMmMHiK4w0BH0WaFkjZbu3aTSPGfwZgd3/UfUuGK1uu1vjYeI5vnWKOwKG+OhXp8RQib5nD8eBDrDUGcAmjhu36/c95aR+PlcgWuD1uyUdhlhorONVrvdQa5VT55j4Y/nGG222ppPCAkAAAAAuIwwfRtDWldmBXD/7BsMxhVqeUlAA237XSMPn28+rLMKaF5ZfHRiQJu/ZgaSktRpBJIZmH275gViOt7kHInZqUcinVLgdi03dwaPndQPHaM2D53p0IACmjbDqDeEeH+4w8GY6uOBpKONzjD10FutOh6TbvyaY7OaGdM0RTG9f8bRt+ff8wSSo69Vhz4YkCS1nx5mIKkaLQ1bAZx/MGirvVeleTEda3COBKzTrj1RKW+BwvHNasJNKjMDSUnaYQSSGSioX6oiRbXPGSpGVuvVozGpeKlnZ/C+o9scIWKj2s7EpLwZus5dbQjJ/nCPAK1LBJJSg8LzA+o7us3Vprb1u9WhgEqrGxLHrpsekPpPq80x2rR7sxlIAgAAAABweSKUxBAKNTsoDXzYmX503uygbvTdKKdTp85JmhawgriZhfpyQDr7wchDt3U3F0rq10fmKMdT53RW0sxrjamtF2PuNpx/T/c9le307Qz6w27jwCfW5kFJMR36MCYFpiWndPdc1IACmre6QptnumuPtdYf3K+qqhFM3Q7fpeI8qeNdnynYDiVziyX1qNsRrkmSdhxXh6T8661dowsWz1K+ojo94tCtRiW3BqT+HnUZJd0HT6tPAV1rTAHv+9g9wrB78xxt9ZlOnVYm/VE7T0U+15PqdDoqaXqhCuwjXRdiUt4C1extShwDAAAAAGCyIJTEKIrpYo95zBYP4uyRgSnrZSvNDtNTvpBnHhq5mQHN9A1fvVLXydMN8QDy/Hu67yl7NOnqVXpt4yq9trFM64zvuOz5BIRx+dNvkhIjA1PXy9qFzpRTr+NB6KgqnqF8xdQbNQtMaeo4Rmd2b56jrfZo0pqWdm1padeWncmRlAAAAAAAXM4IJZEb8fDQHhmY7ZTp4fCOVBwF52M67zcKMyvm6M5OPfLUy6p86mVVRjqtqfCTMZhMoe/Ch1JiZGC2U6aHxztScRREe3xHYWbFDGV3hLW1PKSt5SHti0oqXkkwCQAAAACYFAglMYR+XYx5Rx2uKzN2hD51TmcV0JdvNcM6Y7qzHerdeHNyB+zU/K8d9/wHnVKgSIvMac+zg7rRXKdx1Nj3dFNhcl1I0/lOvR/za2NAi24KSOfO+exGbjt12A4mHaMpbWc/MaZ+j9DCx15Uc3Oztg83/Yx0qs8z6tBeV9Gh7d2olDdLJcY6jtZU5piiB62AsPvjHknFmhVfYzId32vH2WtCFs9TiVEyelPEfdj3VDQ3TWi447g6FFDxYvO+GzSrWOo783bK0Z1t6+1g0jHF2/KhevuTI07TWrddzc3Nan7ucS00ywAAAAAAyCFCSQzBXgcxeHtizcNFSyq0fFpM1jYpcZ16vS2mKSULXWsjrqsq043q1C8SG75Y9RQs00tLnAFmoZ6sMkO8mD66KNe1XU6d1PFYQPPudmwco0I9GS6Uzp3MbkftjMVU/ytrI53vuu43oM1V8fuw6wTL9KRjs51FSxZaG/McTq6nuWhJhauO0qyVeai3X1Khvu7qt+FaqEU3W7FyaNZaszBD1jqI+fPvTYR/JTs3qVQx9Tmr7XhFx/oDKq11ro3YoDXVxVL0QGJnaaueVFR9wr0RTW1EazxBpR3EOa7t1L35gDpUrGXOUYXhJv3l/ID6jr6S3VqRGatT5GhMKl6pDfXO0LFBaxL3YdXJn/8dVxtLdq5UkaI6nNg9u0ZL90aMtlnBpXdaeqO6L8h3Ax/TwuvsIcqBO7R8uGE0AAAAAACj4KpgMPiZeTCVUCikrq4uDQ4OmkXjqrKyUq2trert7TWLxt1E7bNsratapeVB+8O5w6pslp7cWCZF3BvFLFpSoe+WOEIzzy7Vttllei3sDPU69bpjZ+ykgDY/UKF5jlMOtO137Go9VLmsoHJjmW707Pg9AjNv00urnaNFYzretN8dhGbYRlffKk2fZdO/GVj42It6uHSK2t8cwWY3qtHSvZtUag9m7Tu6Tc8evEsb6mYp2jAnGTga9RJ1EyFcUsnOdi1zDrb07GYd16A1LStV5Dji3rl7qHIr8NxSXew9PhL2OZOi2mdsmlNQf0I18x3Psf+IGp07hUu+95+qzzLv37Xa3nyPQtIInzsAAAAAACNDKDnGJmqfAbgyrd3erHtCA3rnmfv1xEGzFAAAAACA3GD6NgBcKdZt1z0haeBYI4EkAAAAAGBcEUoCwKS3Vtubm9V8d0jtb1bp/h+0mhUAAAAAAMgppm+PsYnaZ3DwrA+ZwmiuSYnLgmftxxRGdU1KAAAAAACuAISSY2yi9hkAAAAAAAAwXpi+DQAAAAAAACCnCCUBAAAAAAAA5BShJAAAAAAAAICcIpQEAAAAAAAAkFOEkgAAAAAAAAByilASkqRFSyr02sZVemlJwCySZt6mlzau0mvxrwdu0yKzTqbscz052yzAZS3+jozk3chUbURbWtqTXzsbzBoZK6g/oS0tEZWYBQAAAAAAYEwRSmJo59/TfU+9rMqnXtbr58zC8WcFqmVaZxaMofG45nhYV5WjoDEbO8LaWh7S1vJtOtZvFo6/kp3t2rK3SQVmwZhp0JqWdm2orzELJpdwkza0tGtNrVkAAAAAALgcEUpCknSo10p3zvfGzCJgaOdjOi9JF2M6ZJYBAAAAAAAYCCUBAAAAAAAA5NRVwWDwM/NgKqFQSF1dXRocHDSLxlVlZaVaW1vV29trFo27idpnw7WuapWWTzupH/7kPf8RcbPL9Fq40HGgU68/dVjPxz/OvE0vrb5d5yMv69TNq7Q8aB+PpTmnr0I9ubFMN5qHE4zr2lOuv1uSXDNzoG2/7nvLGBlq39+UxAHnebK9plk/puNN+1V/PnEgS+b5zOv51fG/ptkXOndYlc2d1p89fWDI+lklLXzsRT1cOkXtb1bpUfeND0ONlu7dpNILu7V1fZ1ZmCzPSx7pO7pNz25uTHwuqD+hmvk92ld+XLNaVqooRb0hhZu0oW6B8s3jcf1H1LhitboTBxq0xnE9Kap95WG1JT5brPtzPKdosq2eMoOnDZ579L9mxmoj2lJdnPzsuLc4zz361JE95X2Z41TOezfLTB17Qtq1wzwKAAAAAJjoCCXH2ETts+FKG0rOvE0vlcV0XzzcUkCbH6jQvIAjPJt5m15aXSTFAppyMR6E2UGaMxjLghWw9fsEdEnrqlZpedC8j9slZzCZ6pirTZahr+nXpkI9+UBAr/v13VDiYa95virpkfhnu44zbI2Hj2cjL+uRU1Y165hcYeWiJRVa3rs/UScu7fPO2kI9/tzDuiMgqf0NVT36glkhS+lDyZKdJ1SwZ44OROwDdojmDLwK6k+o5lapLy+gvni4ZdcbbthVsrNdy6abIaSDHQ7KE7y5Q0Ir0JOONSTbUFB/QuGP5xj3ZQWc+WYI6eRzTYWbtKG6U8/69N1Q4kGhq49qI1qjsP05Hgg722QHsUZA69d2z7NTsg2J5wQAAAAAuKwxfRuj5/x7RngXU/2vrNBxtmu3bWcgKWvEX1tMCt6uzTOd9UbJzNv09aB0NuIIEM+/p39ui2lKye3JzWpmTNMUxfT+GcfoSU+bMjQzoJmSzn7g/N5OPTKscC+gzV8zA0lZ53MGwHYd5+jPQ2+16nhMuvFryc1qbvxCQIp16JBj9OSht7yB5Ohr1aEPBiRJ7adHGkgOrW29EWrteEXH+qX8W+9yb0LjDCQd9YrCY7NZTUn1AuX3H9GrjgCxbf1udahYZY7Naq6bHpD6T6vN0YbuzWYgmaHiGcpXTNGDjtAysnpYgaTCTSozA0lZGxAlA8p7VZoX07EG50jMOu3aE5XyFiic2KymRgXTJUWPu0Zsep4dAAAAAGDSIZTE2Oq5KCuGcnOHdfGNdgKaNsN1eFQsurVIU9SpU0boZl0zTzfEg9CeixpQQPNWV4w8HLU3frkxvEpPugLZYZhZqC8HvH3mYtcZ+MTcjjqmQx/GpMC0xJTus5/EpMDt+u447Krd+oP7VVU1GlO3h6NR3RfMY5IU1WlX0GfXy5uh65yHR0WDZhVLfWfeNkZRfqjefil/+k2JI10XYlLeAtWMxk7e0R71KaDSuhNaGjYLs1OweJbyPX3mVjK3WFKPus1gccdxdUjKvz4evtp9XbxSW3Y2GJUBAAAAAJMZoSRG1bqqVXpto+Mr3dqETinCy9Fw4xcCkgq13HlfG1cZa1/aoyKfOqyzCmje6ni9suRIyqx06pGn9lujFMPxcw0z7LRHcF7sMQu8Uu+engxfD721X5WRTiuYjPdFldEXk0G4SRta2rXF8ZVubUKnrgup+nGEwoXKl5Q/f5Prvra0uNe+lD0qcqs9srAmXm+4wV1ktZ4t360OBVRaF79mRCVmvQxYIzh71GUWmNLUcYavbetDajwas4JJu50bHCNGAQAAAACTE6EkRo21bmNMx5teVuVT9lfTyczCxiyCt2yd/SRmbwrjuK/El7kJTKceiZdFrKnny4cdTMZU/xNnPwxzFKY9gnNko0j79ZGznacOJ/rg9XOSgmWTK5iMb+oS3a2t5aHE176oWdFfxsFbtiKd6rM3cnHeV+LLnE69I+y+9xGNKKzTrvh19kQlFWvZMIJJawTnyEaR9l340PW5e/Mcu53brCn28zcRTAIAAADAJEcoiVFSqNlBSedOenZ6zsS6mwu9wVmGPNOwDUOVp3TqsB1Mer8363Oef0/32cFk1uFifCr4zWlCw/Odej/mVyegRTcFpHPnUmzIIz3fbAeT0wKe6dzWVO/k1O+RWvjYi2pubtb24aW8GbOmGMd0bM8w1ky0p1jrQqf/RjVDSB/aeadpZ6ptvR1MTi80pnMP45w7wnYwOUMFWU7n7v64R1KxZiXWhfRqezcq5c1SiXnu2nkqMte2dGnUgRV2MGm2xw50k1O/U1u7vVnNzc168bGFZhEAAAAAYIIglMQo6dfFmKRgMDmqcHZZZtO3Z5dpubkRTTbia0GWmYGc7dRJHY8FNG91+hGPi5ZUeNZ/TBmWDnXN2WV6aUnAdcha23I4o0HjGwGZ5yzUk4nRjfamQsEyVxsWLVmoeYGYjh92bIjzgNkPdqB8MebZhMcKXwv1daMtw7NQi2623obQrLVm4aiygrOAihfHA6waLd2b2fTtkp0rVaSo9pmjFjMUD+2cm9YkNepAJCoVrxxiJGCNlu41RzGmCkvj6zIuTbleZEH9Ca0xQsSU6z4OJb4RULWxPmVtJHmNHa/oWH9ApbXO9TAbtKa6WIoecGxi06A15pqZ4btUnOcdTZkIX+ffO8TozoW64RrrT1NKl2ts3zQAAAAAwHBdFQwGPzMPphIKhdTV1aXBwUGzaFxVVlaqtbVVvb29ZtG4m6h9lo1FSyr03RL/UGqgbb9jt+dCPbmxLDmqLnZSP3xT+pvVt+t85GV7d+eANj9QoXmu08V0vMmcRp2l2WXGGpGdev0pd8hpTS93HJA8O1p76sRO6oepdswe4prefvPeU1aGuJ6UYR3zOXmeo5unHen6ZAgLH3tRD5dOUfubw9/spmRn6nDRuSN0Qf0J1cxP3nfHnpBOz23XsulH1LhitRXsxad5J2pJ6neUD5N5bc85/a6rmI41OHedbtCalpUqctToO7pNzzp27U6q0dK97nUpzbqefjPvKUue80V3G9PPh74nyb8vPDt7J3j7xLfuuu1qvjskqV1vVD2qsd/rHQAAAACQLULJMTZR+wwAJq+12t58j0Kxd/T0t59Qq1kMAAAAABh3TN8GAEwqa7ffo5AG9M7zBJIAAAAAMFERSgIAJod129Xc3Kx7Qu16o+p+PXHQrAAAAAAAmCiYvj3GJmqfTVze9Q59jWBdwwlh5m16KZNNgIw1L5FbnrUhU/Bd1/Ay4lkf0pe55iUAAAAAAMNHKDnGJmqfAQAAAAAAAOOF6dsAAAAAAAAAcopQEgAAAAAAAEBOEUoCAAAAAAAAyClCSQAAAAAAAAA5RSgJAAAAAAAAIKcIJQEAAAAAAADkFKEkJEmLllTotY2r9NKSgFmUAwFtfmCVXqsqNAukmbfppY2r9NrGMq0zy7JmX2fjKj052yzDiMSf0wO3aZFZdrkJN2lDS7vW1JoFUsnOdm1padeG+hqzKHu1EW1padeWvU0qMMsAAAAAAJjkCCUBpLSuapIEjbj8pQmLAQAAAACXH0JJSJIO9fZLks73xsyi8XX+Pd331MuqfOqwnjfLshZT/U9eVuVTL+uRU2YZRuR8TOcl6WJMh8yySaRtfUhby0N6dnOjWZS9HWFtLQ9p64rV6jbLAAAAAACY5AglAQAAAAAAAOTUVcFg8DPzYCqhUEhdXV0aHBw0i8ZVZWWlWltb1dvbaxaNu4naZxmbeZteWl2k95tOatrqMt2omI437ddHZau0PCgpdlI//Ml7jtFxhXpyY5luTHzu1Os+oxzXVdnf73TusCqbO60/z7xNL62+XVPiZZ7rOAW0+YEKzUssh2ndY/35TMst66pWabkOq/JwwHXtsxGfkZWzy/Ra2LEGpvPeE8y+8L9u5szz+fWtWcf/mouWVOi7JY71Q9P1vSnts0hv4WMv6uHSKWp/s0qPmi9FJmoj2lIt7WvoUVndAuUrqn3lr6hg7yaV5kmK7tbW9XWJ6gX1J1QzP9nOvqPbfEY5NmhNy0oVGUc79oS0a4f155Kd7VpW7F/mZZ4vqn3lYbXFP9ZGtKXacTLjni3WObQnpMj1zjYY55Ik1WhpvP2SpJiONczRgYirkjX9uW6B8hMH/M6VhQzaYfa/Xx359K/zOZllpvTPAgAAAAAwURFKjrGJ2mcZs0NJxaT332yV7q7QlxXTlIsnVflBUK+F85Khlx1mqW2/7nvLmgZuhY/O8MwOCOUMtuxjF/2CPfsc01IEYfEAzRWUBbS5qlCHmn3qzy5z37NDMihN3q8V3slV33vMDgJdwWSKYw8E9LpfO4YSD0HN81VJj8Q/23UGHP0fDx+dwar3/q1jy3v3e8LXtH2ftYV6/LmHdUdAUvsbqnr0BbPC0Goj2lI9Q339PTq84rhmtaxUfn9MOvMjvarvqGZ+TyJos8IsR/Bmh3JyBpNpjvX5hV3pyuQI6lzhW4PW7JR2ecI4O0y84BfUOYLNxLns+jqixsSUb7ue43pWECh3MJmqndWdetZz7aHFg0JXIFgb0RqF7c/xoNQZfNr32u+8f5/nJKlk5wkV7DGC1aH6HgAAAABwWWH6NjIQ0JSLJxMB1pRAv15PBGMBTZth/WldmRUO/rMdiEnS882HdVaF+np8V+/Zt2teIKbjb45GyJW8pjs0i6neL5DMSEzHm5KjDw+d6dCAo41SoZaXBDTQ1uoINTv1SKRTCt6uzTPtQzMDminp7AfOkLVTjwwr3Ato89fMQFLW+RzPIV4nHkhK0qG3WnU8Jt34teRmNTd+ISDFOnTIEcoeessbSI6+Vh36YECS1H56GIFkQkA680oiwMrXab2aGP04QwVhK8AqK5Y69jhGAkZW69WjMeXPv1cl9qGS6gXK7z/i+P6RqNHSsBlISlKdTyCZof4jakx8b6PazsSkvBm6zj5SUL9URYpqn+P83Zt/pGP9AZVWNySOqXiG8hVT9KCjnZHVwwokk31rhIM74oGkpNp7VZoX07EG50jMOu3aE5XyFiic2KymRgXTJUWPu0Zstq33GekJAAAAAJhUCCWREVe4Fruos85CSVKhZgelgQ87jdCtXxdj0pQvWHNL191c6AnEhi/VNUdgqHubHdSNiun9M8aGQD0X3eGlvfHLjeFVenK2u2rWZhbqywEz4DTYdQY+sTYsSorp0IcxKTAtMaX77CcxKXC7vjsOu2q3/uB+VVUNc+p2ghGuXej0bBRTsHiW8hXVaWNEXffHPcngUg2aVSz1nXnb8/3DEr5LxXlSx7vDCPpSSH9vNSq5NeAJ9KRGdV+QNL1QBfFD0R71KaDSuhNaGnZVzlqqvnUqmVssqUfdZrC447g6JOVfX2MfsO+1eKW27HSEqAAAAACASY9QEqPDHhk4paRCr21c5fhyruU4yuxr5nLH8EXX5kkKaN5qZxtX6TXPGoydeuSp/dYoxXCyLxIjKbMxY5qmKKaLPWaBV+q+yNMN9rUPvbVflZFOK5iM33+VY33MSeC66QFJxVrW0q4tzi/nGoijzR6N2Bs1C8bKTbo2zw70jHZ61mCMrNaz5bvVoYBK6+L1IokRo9m4bnpA6u9Rl1lgSlMnf/pNiT+3rQ+p8WjM1Y4N9fHQEgAAAAAwWRFKYnTYIwMH2var8qmXvV8+a0WOmH3NmdeOVerpdai3357i7dPGp8wNcWKq/4ld1nRSAwpo3uphBJPmKMxh6ddHzhGgpw4n7vn1c5KCZZMqmOy6ELM3cglpq+drjKYG26MRrzUDwTHzoXr77TUnPW0Maatj3UZLnXbFy/ZE7dA2+2Cy64J7Cvlw9F340PW5e/Mc+7636Vi/lD9/E8EkAAAAAExyhJIYJe5p2qlYU4eTU4ml+DqTzgOZsq95U2HupiEPNyA8/57us4PJ7L/Xngp+c5rQ8Hyn3o/51Qlo0U0B6dw5zw7occ8328HktICnH32f1wgsfOxFNTc3a/s6s2R0uadpp2KFes5Re4qvM+k6kqFIp/okFc3N1TRkn2namdoRtoPJofrIy+rbYs1KrAvp1fZuVMqbpRLz3LXzVGROv3dp1IEVdjBpPJd4/yanfqe2dnuzmpub9eJjC80iAAAAAMAEQSiJURJT/a86pWCZXopvauPD2jjGsfHNzNv0UjhPA6lmHadlXzNwu77rGuUX0OaqMVov8fx7+sU56cbwECMeZ3v7YdGtRRlPw3br1OttMZ++LdSTiXYn+9+5huWiJQutjYUOOzbEeaBM7kzQWptTF2OetTmtkaGO5zUiC7XoZmuSe2jWWrNwdO14xdrspS7dSEB745jipYl1FgvqT2jZ9Jj6zKoZqVPEnobsHuXXoDVjtF5i254j6stboJohzl9Qf0JrjBAx5bqPQ9nxio71S0XVxvqUtZHkNeL9X9vkCEwbtKa6WIoecIxUbdCavc46ybU5zdGUiRDZsVGRv4W64RrrT1NKl2uM3zQAAAAAwDBdFQwGPzMPphIKhdTV1aXBwUGzaFxVVlaqtbVVvb29ZtG4m6h9lrGZt+ml1bfrfORlPXIqoM0PVGie7N2uZ5fptXChzkYc05bt+u71FWM63rQ/uVu1/X2WTr3+1GGpapWWK7m79KIlFfpuiX8QNtC237XDtPeaxvU85Q6OnbvXVa3S8mnGTt6u9ie/zff+jF3AvXWstqYasTgkV7/J/3yZ1FGhntxY5hr96OlTB087PLudZ27hYy/q4dIpan9zmJvd1Ea0pXqGjjXM0YFIg9a0rFSRvdt1Qf0J1cyXXWZVL9nps76isTu2q050t7aul9a0rJQSu0vb10l8h1NU+8qdO0zH79F5UXcd33uyJXe0tq6Zf3SbnnXsDG61sce4pv/9mbtje67bf0SNninemfOcz7PreI2W7t2kUsfg6T6jPZK1m/eGOvfoVPPek7xt9a27brua7w5JatcbVY9qJHu9AwAAAADGBqHkGJuofQYAk9dabW++R6HYO3r620+o1SwGAAAAAIw7pm8DACaVtdvvUUgDeud5AkkAAAAAmKgIJQEAk8O67WpubtY9oXa9UXW/njhoVgAAAAAATBRM3x5jE7XPMM7SrXPpdC65ziYwVjzrQ/qKudbrBAAAAABgJAglx9hE7TMAAAAAAABgvDB9GwAAAAAAAEBOEUoCAAAAAAAAyClCSQAAAAAAAAA5RSgJAAAAAAAAIKcIJQEAAAAAAADkFKEkAAAAAAAAgJwilIQkadGSCr22cZVeWhIwiya0dVWr9NrG5NeTs80ak0u8vZO9nWnVRrSlpT35tbPBrAEAAAAAACY4QklkqFBPjmJoua5qlV574DYtMguy9Hzzy6p86mVVNp3UgFl4uZh5m16aoEFjyc52bdnbpAKzYBgK6k9oS0tEJWZBtnaEtbU8pK3l23Ss3yy8TISbtKGlXWtqzQIAAAAAAK4MhJKQJB3qtdKd870xswgTyNlPYpJiuthjlgAAAAAAAFw+CCUBAAAAAAAA5NRVwWDwM/NgKqFQSF1dXRocHDSLxlVlZaVaW1vV29trFo27idpnmVq0pELfLUk9ZXugbb/ue8sxunLmbXpp9e2akjjQqdefOqznfcsMsZP64U/e06H4Z0/9mI437Vf9+cSBJLvu+cjLeuSUWZgds82eNvrU0bnDqmzudFaxp7yX6cbEZ/f9r6tapeXBZG3T2WG3Za22N9+jUOwdPf3tJ9RqFg8l3KQNdQuUbx6P6z+ixhWr1R3/7Kkf1b7ysNokSQ1a07JSRYkyk7Ou37liOtYwRwciiQMONVq6d5NKL+zW1vV1ZmF2aiPaUl2c/Bz1nrOg/oRq5jueuU8d2VPelzlO1Xd0m57d3OhbZurYE9KuHeZRAAAAAAAmH0LJMTZR+yx7VsA20yegi4sHdc4wzQrevGHiuqpVWj7NCCFdCvXkAwG97ihPdS5ptELJgDY/UKF5Afc1Fi0p06Izh+3P8TqOsDUePrpCVfuYK6z0tkkarXt3WLddzXeHJA3onWfu1xMHzQqZK9nZrmXTjRDSIR7UOcM0K3jzholW3R53COnSoDV7CxVxXCvVuSyjE0rGg0JXIFgb0RqF7c/2dfJ8wlYjoLXO5Q5aS3aeUMEe4/7t8LWPEBIAAAAAcIVi+jZGSaGWlwQ00LbfFaw933xYZxXQvLJCZ+UMdOoRI7x7/vBJDSigL9+aeuTmiMy+3RNIStKht+KBpLNOPJCUda+RTilwu5bHN6uZGdBMSWc/cI6e9LZpTDx/Su2SFPutDo0gkBxag8LzA+o7us0VrLWt360OBVRane2u2HXaZYSfbXuOqE8BFS+ucRwdReEmlZmBpKzNdJIB5b0qzYvpWIMzTK3Trj1RKW+BwonNampUMF1S9LgrdG1b7xeoAgAAAABwZSOUxOiYHdSNvhvldOrUOUnTAiPeaVvnYzIHSI6mdTcXSrEOHUpzkXU3F0rq10dmnVPndFbSzGvtwNS+1xvD47Gr9gt6tKpKVcOZup2N2nkqktT3sTU1OalOp6OSpheOfNfuSKf6zGOjqGDxLOUrqtNpRiuWzC2W1KNuM1jccVwdkvKvjwemjeq+IKl4pbbszDaQBQAAAADgykIoiVGUZlfowDTH2oqZWbSkQq9tXOX4cq7PONoCumGapIuxoUcyxi7qrHnMNuULefafOvXIU/t1PGYFk9b9V2jzTOMbLnsx9UbNY7a8GbrOPDaEgvoT2tLS7vhKtx7lyF03PSD196jLLDClqZM//abEn9vWh9R4NGYFk3YbNtSP0ShPAAAAAAAuY4SSyI00QZ4f5/qUlU/Fvw5ndY7sxPTRxZGP6Bz4pN/xKab6n9j33mRNPZ+3ejIGkymkCfL8ONen3Foe/9qtDrPiKOq6EBtWeOrUd+FD1+fuzXPse9+mY/1S/vxNBJMAAAAAABgIJZGhfl2MOUcCGk6d01nf9R4LNTsoDXzY6RqBePaTWJrRkwEtuikgxU7q9dHY+CVD1j0VaVGa0PD5Dzr968wO6kbF9P4Zc/q67fx7us8OJqfNMMusqd6Jqd8jtlbbm5vV/NzjWmgWZSltaLfjuDp813ts0Kxiqe/M2671Ibs/7pE0QwVhx8GEGpXcGpD6jyiSZir1aLPuqVizEutCerW9G5XyZqnEvO/aeSpSTNGD5vT1uEYdWGEHk47RlFJyWnpy6jcAAAAAAFcWQklkyB5JGLw9xUi/Tr3eFtOUkoWu8nVVZbpRnfqFsWP3od5+SYX6+hK/IM6+ljP8m3mbXhrT6dvSobdOWpvyrC7TOsfxRUvKkm06dVLHYwHNu/s2x4jKQj0ZLpTOnXRsiFOml4y2Lbq1SFN8p7jbgW/J7a7rDtu62QpJUuAWLVpsFmYnHtqV+Y70q1PkaEz587+jpY7ArmTnShUpqsObjbAu2qO+lBvg2OsxOsO/cJM2jPH0be14Rcf6paLqE642qDaiNfGgcscrOtYfUGltk2ONzAatqS6Wogccm9g0aM1eZx1J4btUnOcdTSl9qN5+KX/+vSoxSgAAAAAAuBJcFQwGPzMPphIKhdTV1aXBwUGzaFxVVlaqtbVVvb29ZtG4m6h9NjwBbX6gQvMcWdtA237d5wgc49OuE2In9cMUO06nr2teq1OvP3VOszeWaWbimoV6MmVQ2anXn3LukJ0p87reNmZWx6d9ae/J25azkZddO5lnbq22N9+jUOwdPT0Km93Ep1Un9B9Ro2OX7KHKXWoj2lJd7DgQ1b7y+K7WNVq6d5NKE4Nxo9pXflyzWlYq/+g2PWuHnCU727XMeQoHzy7aGfKcM7pbW9fXOQ6Y9yb1Oe4pIdykDXULlO84lPqeGrTGCF1T1wUAAAAAYHIhlBxjE7XPAAAAAAAAgPHC9G0AAAAAAAAAOUUoCQAAAAAAACCnmL49xiZqn10p1lWt0vKgedQU0/Gm/clNanBZ86wP6SumYw1zHJvUAAAAAACAXCKUHGMTtc8AAAAAAACA8cL0bQAAAAAAAAA5RSgJAAAAAAAAIKcIJcdYe3s7U7cBAAAAAAAAB0JJAAAAAAAAADlFKAkAAAAAAAAgpwglAQAAAAAAAOQUoWRO/FG/+Nk5dfzsnDp+/EezEAAAAAAAALiiEErmxNX6+jeDKvpmgaI3dRNMAgAAAAAA4IpGKJlTV2v3//q8NP3fVWMWAQAAAAAAAFcIQsnxEPh3FZvHAAAAAAAAgCsEoSQAAAAAAACAnCKUBAAAAAAAAJBThJI51vh//qN5CAAAAAAAALiiEErm2of/QTH1aen3/mSWAAAAAAAAAFcEQslca5mi278Z1IHpH6njZ+d0knASAAAAAAAAVxhCyVwrH9DJn53TvBNBFX0zqNu/92dmDQAAAAAAAGBSI5TMsZqFnyqgfB3/Z7MEAAAAAAAAuDIQSgIAAAAAAADIKUJJAAAAAAAAADlFKAkAAAAAAAAgpwglAQAAAAAAAOQUoWRO/VEr//On0oef038ziwAAAAAAAIArBKFkTvxRv/jZOXX8rFvFsWv1xINXmxUAAAAAAACAKwahZE5cra9/M6iibwZVdO8UNZrFAAAAAAAAwBWEUBIAAAAAAABATl0VDAY/Mw+mEgqF1NXVpcHBQbMIAAAAAAAAADLCSEkAAAAAAAAAOUUoCQAAAAAAACCnCCUBAAAAAAAA5BShJAAAAAAAAICcIpQEAAAAAAAAkFOEkgAAAAAAAAByilASAAAAAAAAQE4RSgIAAAAAAADIKUJJAAAAAAAAADlFKAkAAAAAAAAgpwglAQAAAAAAAOQUoSQAAAAAAACAnCKUBAAAAAAAAJBThJIAAAAAAAAAcur/B6S5zf/uJsENAAAAAElFTkSuQmCC;" vertex="1" parent="1">
          <mxGeometry x="650" y="400" width="1317" height="737" as="geometry" />
        </mxCell>
        <mxCell id="E4PkKl1fuBF28ogTU3mZ-2" value="" style="endArrow=classic;html=1;rounded=0;strokeColor=#ff0000;" edge="1" parent="1">
          <mxGeometry width="50" height="50" relative="1" as="geometry">
            <mxPoint x="1410" y="620" as="sourcePoint" />
            <mxPoint x="1304.9494949494947" y="672" as="targetPoint" />
          </mxGeometry>
        </mxCell>
        <mxCell id="E4PkKl1fuBF28ogTU3mZ-4" value="&lt;font color=&quot;#ffffff&quot;&gt;&lt;span style=&quot;font-size: 20px;&quot;&gt;First adds the consultation fees of the doctor.&lt;/span&gt;&lt;/font&gt;" style="text;html=1;align=center;verticalAlign=middle;whiteSpace=wrap;rounded=0;" vertex="1" parent="1">
          <mxGeometry x="1400" y="590" width="192" height="30" as="geometry" />
        </mxCell>
        <mxCell id="E4PkKl1fuBF28ogTU3mZ-7" value="" style="labelPosition=right;align=left;strokeWidth=2;shape=mxgraph.mockup.markup.curlyBrace;html=1;shadow=0;dashed=0;strokeColor=#FF0000;direction=north;flipH=1;" vertex="1" parent="1">
          <mxGeometry x="1800" y="750" width="20" height="140" as="geometry" />
        </mxCell>
        <mxCell id="E4PkKl1fuBF28ogTU3mZ-8" value="&lt;font color=&quot;#ffffff&quot;&gt;&lt;span style=&quot;font-size: 20px;&quot;&gt;If the status of the lab test is not prescribed, indicating that the lab test has been conducted, the fees are added accordingly.&lt;/span&gt;&lt;/font&gt;" style="text;html=1;align=center;verticalAlign=middle;whiteSpace=wrap;rounded=0;" vertex="1" parent="1">
          <mxGeometry x="1820" y="730" width="140" height="140" as="geometry" />
        </mxCell>
        <mxCell id="E4PkKl1fuBF28ogTU3mZ-9" value="" style="endArrow=classic;html=1;rounded=0;strokeColor=#ff0000;exitX=0;exitY=0.75;exitDx=0;exitDy=0;" edge="1" parent="1" source="E4PkKl1fuBF28ogTU3mZ-10">
          <mxGeometry width="50" height="50" relative="1" as="geometry">
            <mxPoint x="1154" y="890" as="sourcePoint" />
            <mxPoint x="1010" y="949" as="targetPoint" />
          </mxGeometry>
        </mxCell>
        <mxCell id="E4PkKl1fuBF28ogTU3mZ-10" value="&lt;font color=&quot;#ffffff&quot;&gt;&lt;span style=&quot;font-size: 20px;&quot;&gt;Adds the medicine cost that was calculated when the medicines were dispensed, in Update Stock view.&lt;/span&gt;&lt;/font&gt;" style="text;html=1;align=center;verticalAlign=middle;whiteSpace=wrap;rounded=0;" vertex="1" parent="1">
          <mxGeometry x="1200" y="900" width="350" height="30" as="geometry" />
        </mxCell>
        <mxCell id="E4PkKl1fuBF28ogTU3mZ-11" value="" style="labelPosition=right;align=left;strokeWidth=2;shape=mxgraph.mockup.markup.curlyBrace;html=1;shadow=0;dashed=0;strokeColor=#FF0000;direction=north;flipH=1;" vertex="1" parent="1">
          <mxGeometry x="1130" y="980" width="20" height="130" as="geometry" />
        </mxCell>
        <mxCell id="E4PkKl1fuBF28ogTU3mZ-12" value="&lt;font color=&quot;#ffffff&quot;&gt;&lt;span style=&quot;font-size: 20px;&quot;&gt;Sends a breakdown of the cost back to the front end.&lt;/span&gt;&lt;/font&gt;" style="text;html=1;align=center;verticalAlign=middle;whiteSpace=wrap;rounded=0;" vertex="1" parent="1">
          <mxGeometry x="1150" y="1030" width="350" height="30" as="geometry" />
        </mxCell>
      </root>
    </mxGraphModel>
  </diagram>
</mxfile>
